<?xml version="1.0" encoding="utf-8"?>
<!-- Generator: Adobe Illustrator 16.0.0, SVG Export Plug-In . SVG Version: 6.00 Build 0)  -->
<!DOCTYPE svg PUBLIC "-//W3C//DTD SVG 1.1//EN" "http://www.w3.org/Graphics/SVG/1.1/DTD/svg11.dtd">
<svg version="1.1" id="Layer_1" xmlns="http://www.w3.org/2000/svg" xmlns:xlink="http://www.w3.org/1999/xlink" x="0px" y="0px"
	 width="612px" height="792px" viewBox="0 0 612 792" enable-background="new 0 0 612 792" xml:space="preserve">
<path fill="#acd58e" d="M398.539,388.726c-0.49-29.951-7.855-53.355-7.855-53.355s-0.164-1.064-0.573-2.455
	c-0.409-1.392-1.309-1.473-1.309-1.473s-0.818-1.556-1.801-3.355c-0.981-1.801-1.555-2.946-1.555-2.946s0-1.8,0-7.938
	c0-6.137-2.291-11.375-2.782-11.293s0.327,2.783,0.981,5.564c0.655,2.783,0,6.711,0,6.711s-0.981-2.782-3.273-7.119
	c-2.291-4.338-6.955-8.92-7.364-8.511s3.519,5.401,5.237,9.083c1.718,3.683,1.555,6.547,1.555,6.547s-1.719-1.882-2.946-3.273
	c-1.228-1.391-4.991-5.4-4.991-5.4s-0.246-3.028-1.31-5.686c-1.064-2.658-8.593-7.326-9.493-7.081
	c-0.899,0.245-0.654,1.228-0.245,3.437c0.409,2.21,0.736,3.438,0.736,3.438s-5.892-1.801-7.855-1.964
	c-1.965-0.163-3.438,0.9-4.747,0.9s-4.255-2.946-9.165-3.028s-9.247,3.273-10.229,3.928c-0.981,0.655-9.819,4.256-9.738,6.629
	c0.082,2.373,13.257-1.063,16.776-1.882c3.519-0.818,7.119-4.01,7.119-4.01s0.409-0.327,1.801-0.327
	c1.391,0,2.209,0.245,2.209,0.245s-1.882,1.063-3.601,1.31c-1.719,0.245-4.501,3.273-6.056,3.682
	c-1.555,0.41-4.582,2.537-7.774,3.52c-3.191,0.982-5.073,3.109-5.073,4.992c0,1.882,5.073,0.654,8.184-0.082
	c3.109-0.736,8.265-2.619,8.265-2.619s1.555-0.082,3.52-0.245c1.964-0.163,4.828-2.374,4.828-2.374s-3.355,6.793-4.91,11.212
	s-1.637,8.102,1.391,9.819c3.028,1.719,7.202-5.81,7.202-5.81s0,0.491,0.572,0.818c0.573,0.327,0.9,1.228,0.9,1.228
	s-0.573,0.982,0,1.555c0.572,0.572,1.555,0,1.555,0s0.818,0.736,0,1.473s-1.228,3.028-2.21,4.828
	c-0.981,1.801-0.736,4.502-3.354,6.793c-2.619,2.291-5.564,3.109-5.074,3.355c0.491,0.245,2.946,0.163,4.992-0.573
	c2.046-0.737,3.846-2.455,3.846-2.455s-0.163,1.555-0.49,2.864c-0.328,1.309,0.081,3.682,1.391,3.682s0.9-3.436,0.9-3.436
	s0.573,0,1.31-0.164s1.18-0.573,1.18-0.573s1.766,3.437,2.912,3.765c1.146,0.327,2.291-0.9,2.291-1.392s-1.063,0.082-1.964-0.081
	c-0.9-0.164-1.392-1.801-1.392-1.801s1.228,0.082,2.373-0.654c0.871-0.561,1.064-3.191,0.573-3.52
	c-0.491-0.327-1.882,2.046-2.291,1.965c-0.409-0.082,0-2.947,0.327-5.156s2.455-5.482,2.455-5.482s0.572,0.818,0.572,1.555
	s1.964,3.355,2.619,3.273c0.654-0.082,0.654-1.555,0.491-3.438c-0.164-1.882-1.31-4.256-1.31-4.256s0.818-3.027,1.228-3.928
	s3.765-2.373,6.465-3.928s2.291-2.291,2.291-2.291s0.327-0.409,3.191,3.027c2.864,3.438,4.747,9.084,4.747,9.084l-1.146,0.49
	c0,0,0,0-1.146,0.41c-1.146,0.408-1.555,0.9-1.555,0.9s-1.146-0.164-3.765,0.163c-2.618,0.327-5.728,6.547-6.874,10.229
	c-1.146,3.682-2.618,8.51-3.354,9.002c-0.737,0.49-1.801-0.328-2.21-0.818c-0.409-0.492,1.31-2.292,0.164-2.783
	c-1.146-0.49-1.064,1.719-2.455,1.719c-1.392,0-1.637,0.982-1.883,2.946c-0.245,1.964,1.719,2.536,1.719,2.536
	s-0.572,0.655-1.555,1.555c-0.982,0.9-3.601,4.01-3.601,4.01l-0.409-0.981c0,0-2.537,0.082-3.683,0.818
	c-1.146,0.737-1.391,2.374-1.391,2.374s-0.328,0.49-1.31,0.408c-0.982-0.082-0.818-2.373-0.818-2.373s0.818-0.409,1.31-1.146
	c0.49-0.736,0.409-2.128-0.328-2.128c-0.736,0-0.49,1.064-0.899,1.392s-0.655,0.409-1.556,0.491
	c-0.899,0.082-0.736,1.309-0.736,1.309s-1.473,1.965-1.555,3.928c-0.082,1.965,1.964,4.256,4.337,4.828
	c2.373,0.574,4.747-0.163,4.747-0.163s-0.082,1.964-0.409,3.273c-0.328,1.31,0.572,4.173,1.882,4.991s3.519,0.573,3.519,0.573
	s0.246,0.737,1.064,0.737s1.637-2.047,1.063-2.701s-1.146,0.246-1.146,0.246s-0.082-0.982-0.327-1.474
	c-0.246-0.491-1.275,0.573-1.275,0.573s-0.198-0.982,0-2.537s0.866-2.209,0.866-2.209s2.127,0.899,4.255-0.082
	c2.128-0.982,0.982-3.438,0.982-3.438s1.473-1.146,3.109-2.127c1.637-0.982,3.355-3.355,3.355-3.355s0.572,0.49,0.981,0.982
	c0.409,0.49,2.701,1.145,4.174,1.227s2.291-1.309,2.046-1.964s-1.063-0.736-1.063-0.736s-1.146,0.491-1.474-0.491
	s0.082-2.209,0.082-2.209s0.654,1.882,3.683,1.719c3.027-0.164,2.209-4.584,1.31-4.584c-0.9,0-0.246,2.455-1.228,2.783
	c-0.982,0.327-1.064-0.9-1.064-0.9s0.655-1.309,1.228-2.291c0.573-0.982,0.736-1.31,0.736-1.31s2.984,0.298,5.975,2.292
	c4.173,2.781,5.728,5.973,5.728,5.973s0.246-0.981,1.146,20.786c0.899,21.768-1.065,32.484-1.965,55.315
	c-0.9,22.832,2.292,30.119,2.292,30.119l2.864,3.273c0,0-1.801-13.666-1.883-22.586C395.267,443.718,399.03,418.677,398.539,388.726
	z M366.297,317.939c-0.736,0.245,0.082-0.9-0.981-0.982c-1.064-0.081-3.683,3.273-3.683,3.765c0,0.49-0.736,0.982-1.473,0.736
	c-0.737-0.246-4.992,4.828-4.992,4.828s2.373-5.237,4.582-7.201c2.21-1.964,3.602-3.928,3.602-3.928l3.846,2.291
	C367.197,317.448,367.033,317.694,366.297,317.939z M370.962,314.339c-1.064,0.245-2.537,2.045-2.537,2.045
	s-0.736-0.654-1.228-1.227c-0.491-0.573-3.273-0.573-3.273-0.573s0.409-0.899,0.9-1.882s1.31-4.501,1.31-4.501
	s1.146,0.491,2.782,2.21c1.637,1.718,2.7,3.354,2.7,3.354S372.025,314.093,370.962,314.339z M387.901,358.446
	c-2.292-1.637-5.542-2.902-5.811-2.945s-0.409,0.245-1.31-0.573c-0.899-0.817-2.291,0.164-2.291,0.164s1.064-2.128,1.555-3.683
	c0.491-1.555,4.01-8.348,4.174-10.803s-1.801-3.272-1.801-3.272s0.491-1.063,1.392-1.392c0.9-0.327,3.027,1.555,3.027,1.555
	s2.374,5.074,3.847,12.685s1.801,11.456,1.801,11.456S390.192,360.083,387.901,358.446z"/>
<path fill="#acd58e" stroke="#5361AC" stroke-miterlimit="10" d="M398.539,388.726c-0.49-29.951-7.855-53.355-7.855-53.355
	s-0.164-1.064-0.573-2.455c-0.409-1.392-1.309-1.473-1.309-1.473s-0.818-1.556-1.801-3.355c-0.981-1.801-1.555-2.946-1.555-2.946
	s0-1.8,0-7.938c0-6.137-2.291-11.375-2.782-11.293s0.327,2.783,0.981,5.564c0.655,2.783,0,6.711,0,6.711s-0.981-2.782-3.273-7.119
	c-2.291-4.338-6.955-8.92-7.364-8.511s3.519,5.401,5.237,9.083c1.718,3.683,1.555,6.547,1.555,6.547s-1.719-1.882-2.946-3.273
	c-1.228-1.391-4.991-5.4-4.991-5.4s-0.246-3.028-1.31-5.686c-1.064-2.658-8.593-7.326-9.493-7.081
	c-0.899,0.245-0.654,1.228-0.245,3.437c0.409,2.21,0.736,3.438,0.736,3.438s-5.892-1.801-7.855-1.964
	c-1.965-0.163-3.438,0.9-4.747,0.9s-4.255-2.946-9.165-3.028s-9.247,3.273-10.229,3.928c-0.981,0.655-9.819,4.256-9.738,6.629
	c0.082,2.373,13.257-1.063,16.776-1.882c3.519-0.818,7.119-4.01,7.119-4.01s0.409-0.327,1.801-0.327
	c1.391,0,2.209,0.245,2.209,0.245s-1.882,1.063-3.601,1.31c-1.719,0.245-4.501,3.273-6.056,3.682
	c-1.555,0.41-4.582,2.537-7.774,3.52c-3.191,0.982-5.073,3.109-5.073,4.992c0,1.882,5.073,0.654,8.184-0.082
	c3.109-0.736,8.265-2.619,8.265-2.619s1.555-0.082,3.52-0.245c1.964-0.163,4.828-2.374,4.828-2.374s-3.355,6.793-4.91,11.212
	s-1.637,8.102,1.391,9.819c3.028,1.719,7.202-5.81,7.202-5.81s0,0.491,0.572,0.818c0.573,0.327,0.9,1.228,0.9,1.228
	s-0.573,0.982,0,1.555c0.572,0.572,1.555,0,1.555,0s0.818,0.736,0,1.473s-1.228,3.028-2.21,4.828
	c-0.981,1.801-0.736,4.502-3.354,6.793c-2.619,2.291-5.564,3.109-5.074,3.355c0.491,0.245,2.946,0.163,4.992-0.573
	c2.046-0.737,3.846-2.455,3.846-2.455s-0.163,1.555-0.49,2.864c-0.328,1.309,0.081,3.682,1.391,3.682s0.9-3.436,0.9-3.436
	s0.573,0,1.31-0.164s1.18-0.573,1.18-0.573s1.766,3.437,2.912,3.765c1.146,0.327,2.291-0.9,2.291-1.392s-1.063,0.082-1.964-0.081
	c-0.9-0.164-1.392-1.801-1.392-1.801s1.228,0.082,2.373-0.654c0.871-0.561,1.064-3.191,0.573-3.52
	c-0.491-0.327-1.882,2.046-2.291,1.965c-0.409-0.082,0-2.947,0.327-5.156s2.455-5.482,2.455-5.482s0.572,0.818,0.572,1.555
	s1.964,3.355,2.619,3.273c0.654-0.082,0.654-1.555,0.491-3.438c-0.164-1.882-1.31-4.256-1.31-4.256s0.818-3.027,1.228-3.928
	s3.765-2.373,6.465-3.928s2.291-2.291,2.291-2.291s0.327-0.409,3.191,3.027c2.864,3.438,4.747,9.084,4.747,9.084l-1.146,0.49
	c0,0,0,0-1.146,0.41c-1.146,0.408-1.555,0.9-1.555,0.9s-1.146-0.164-3.765,0.163c-2.618,0.327-5.728,6.547-6.874,10.229
	c-1.146,3.682-2.618,8.51-3.354,9.002c-0.737,0.49-1.801-0.328-2.21-0.818c-0.409-0.492,1.31-2.292,0.164-2.783
	c-1.146-0.49-1.064,1.719-2.455,1.719c-1.392,0-1.637,0.982-1.883,2.946c-0.245,1.964,1.719,2.536,1.719,2.536
	s-0.572,0.655-1.555,1.555c-0.982,0.9-3.601,4.01-3.601,4.01l-0.409-0.981c0,0-2.537,0.082-3.683,0.818
	c-1.146,0.737-1.391,2.374-1.391,2.374s-0.328,0.49-1.31,0.408c-0.982-0.082-0.818-2.373-0.818-2.373s0.818-0.409,1.31-1.146
	c0.49-0.736,0.409-2.128-0.328-2.128c-0.736,0-0.49,1.064-0.899,1.392s-0.655,0.409-1.556,0.491
	c-0.899,0.082-0.736,1.309-0.736,1.309s-1.473,1.965-1.555,3.928c-0.082,1.965,1.964,4.256,4.337,4.828
	c2.373,0.574,4.747-0.163,4.747-0.163s-0.082,1.964-0.409,3.273c-0.328,1.31,0.572,4.173,1.882,4.991s3.519,0.573,3.519,0.573
	s0.246,0.737,1.064,0.737s1.637-2.047,1.063-2.701s-1.146,0.246-1.146,0.246s-0.082-0.982-0.327-1.474
	c-0.246-0.491-1.275,0.573-1.275,0.573s-0.198-0.982,0-2.537s0.866-2.209,0.866-2.209s2.127,0.899,4.255-0.082
	c2.128-0.982,0.982-3.438,0.982-3.438s1.473-1.146,3.109-2.127c1.637-0.982,3.355-3.355,3.355-3.355s0.572,0.49,0.981,0.982
	c0.409,0.49,2.701,1.145,4.174,1.227s2.291-1.309,2.046-1.964s-1.063-0.736-1.063-0.736s-1.146,0.491-1.474-0.491
	s0.082-2.209,0.082-2.209s0.654,1.882,3.683,1.719c3.027-0.164,2.209-4.584,1.31-4.584c-0.9,0-0.246,2.455-1.228,2.783
	c-0.982,0.327-1.064-0.9-1.064-0.9s0.655-1.309,1.228-2.291c0.573-0.982,0.736-1.31,0.736-1.31s2.984,0.298,5.975,2.292
	c4.173,2.781,5.728,5.973,5.728,5.973s0.246-0.981,1.146,20.786c0.899,21.768-1.065,32.484-1.965,55.315
	c-0.9,22.832,2.292,30.119,2.292,30.119l2.864,3.273c0,0-1.801-13.666-1.883-22.586C395.267,443.718,399.03,418.677,398.539,388.726
	z M366.297,317.939c-0.736,0.245,0.082-0.9-0.981-0.982c-1.064-0.081-3.683,3.273-3.683,3.765c0,0.49-0.736,0.982-1.473,0.736
	c-0.737-0.246-4.992,4.828-4.992,4.828s2.373-5.237,4.582-7.201c2.21-1.964,3.602-3.928,3.602-3.928l3.846,2.291
	C367.197,317.448,367.033,317.694,366.297,317.939z M370.962,314.339c-1.064,0.245-2.537,2.045-2.537,2.045
	s-0.736-0.654-1.228-1.227c-0.491-0.573-3.273-0.573-3.273-0.573s0.409-0.899,0.9-1.882s1.31-4.501,1.31-4.501
	s1.146,0.491,2.782,2.21c1.637,1.718,2.7,3.354,2.7,3.354S372.025,314.093,370.962,314.339z M387.901,358.446
	c-2.292-1.637-5.542-2.902-5.811-2.945s-0.409,0.245-1.31-0.573c-0.899-0.817-2.291,0.164-2.291,0.164s1.064-2.128,1.555-3.683
	c0.491-1.555,4.01-8.348,4.174-10.803s-1.801-3.272-1.801-3.272s0.491-1.063,1.392-1.392c0.9-0.327,3.027,1.555,3.027,1.555
	s2.374,5.074,3.847,12.685s1.801,11.456,1.801,11.456S390.192,360.083,387.901,358.446z M371.78,365.239
	c0,0-0.546-0.654-0.655-1.637c-0.108-0.982,0-1.555,0-1.555s-1.639,1.559-4.257,0.469c-2.619-1.092-4.386-3.793-4.386-3.793
	c1.256,0.84,3.842,0.732,6.242,0.445c2.401-0.285,3.492-2.877,3.492-2.877s-0.328,1.418,0,2.291c0.327,0.873,2.073,1.2,3.382,1.855
	c1.31,0.654,0.928,1.609,0.928,1.609 M381.147,337.783c0,0-1.349,5.694-3.896,10.938c-2.547,5.246-3.896,6.444-3.896,6.444
	 M355.621,371.204c0,0-0.213-0.453,3.591-3.75s6.664-5.454,6.664-5.454 M358.195,339.216c0,0-1.036,2.729-1.8,3.765
	s-1.474,1.555-1.474,1.555 M361.06,347.399c0,0-0.354-1.527-1.336-1.801c-0.982-0.272-1.364-1.09-1.528-1.963
	c-0.163-0.873,0-2.729,0-2.729 M347.503,325.632c0.818-3.001,10.747-19.04,12.089-20.076c1.341-1.037,2.096-0.273,2.096-0.273
	 M371.18,318.703c0,0,0.655,2.346-0.545,3.655c-1.201,1.309-9.702,7.746-11.043,8.184c-1.342,0.436-2.869,0.572-2.869,0.572
	 M349.194,307.41c0,0-4.583,3.601-10.257,5.565c-5.674,1.963-7.855,2.509-9.711,3.272 M342.647,302.282c0,0-4.256,2.837-9.165,3.928
	 M366.134,308.128c0,0-1.035,0.277-2.292-0.718c-1.46-1.157-2.291-3.792-2.291-3.792"/>
</svg>
