<?xml version="1.0" encoding="utf-8"?>
<!-- Generator: Adobe Illustrator 16.0.0, SVG Export Plug-In . SVG Version: 6.00 Build 0)  -->
<!DOCTYPE svg PUBLIC "-//W3C//DTD SVG 1.1//EN" "http://www.w3.org/Graphics/SVG/1.1/DTD/svg11.dtd">
<svg version="1.1" id="Layer_1" xmlns="http://www.w3.org/2000/svg" xmlns:xlink="http://www.w3.org/1999/xlink" x="0px" y="0px"
	 width="612px" height="792px" viewBox="0 0 612 792" enable-background="new 0 0 612 792" xml:space="preserve">
<g>
	<path fill="#7CB9E4" stroke="#5361AC" stroke-miterlimit="10" d="M299.545,368.688c-0.86-2.738-1.617-5.93-2.136-9.617
		c-0.453-3.221-0.625-6.125-0.614-8.719c-6.36-8.757-12.189-11.273-12.189-11.273s-1.334,7.12,3.359,18.541
		c1.541,1.134,3.145,2.43,4.801,3.92C295.533,364.032,297.756,366.444,299.545,368.688z"/>
	<path fill="#7CB9E4" stroke="#5361AC" stroke-miterlimit="10" d="M313.791,395.481c0.86,2.738,1.617,5.93,2.137,9.619
		c0.309,2.205,0.486,4.261,0.564,6.172c6.845,10.278,13.493,13.153,13.493,13.153s1.174-6.24-2.529-16.409
		c-2.157-1.442-4.47-3.21-6.886-5.385C317.803,400.138,315.58,397.727,313.791,395.481z"/>
	<path fill="#7CB9E4" stroke="#5361AC" stroke-miterlimit="10" d="M286.235,366.756c3.974,1.604,7.232,3.356,9.888,5.072
		c-1.81-2.33-3.686-5.156-5.505-8.576c-1.05-1.976-1.923-3.854-2.653-5.632c-9.958-7.333-17.201-7.76-17.201-7.76
		s1.02,6.166,7.829,14.357C280.934,364.823,283.484,365.643,286.235,366.756z"/>
	<path fill="#7CB9E4" stroke="#5361AC" stroke-miterlimit="10" d="M291.007,375.524c-1.997-1.37-4.118-3.016-6.326-5.005
		c-2.423-2.182-4.425-4.301-6.088-6.302c-10.771-2.78-17.027-0.914-17.027-0.914s3.41,6.062,13.837,11.698
		c2.37-0.223,5-0.319,7.907-0.217C286.146,374.884,288.703,375.152,291.007,375.524z"/>
	<path fill="#7CB9E4" stroke="#5361AC" stroke-miterlimit="10" d="M303.6,377.913c-1.622-1.706-4.042-3.865-7.477-6.085
		c2.812,3.621,5.463,6.041,7.474,7.58c0.593,0.299,1.109,0.582,1.555,0.843C304.694,379.633,304.166,378.856,303.6,377.913z"/>
	<path fill="#7CB9E4" stroke="#5361AC" stroke-miterlimit="10" d="M291.897,381.087c-2.996-0.618-6.407-1.602-10.19-3.129
		c-2.342-0.947-4.435-1.944-6.304-2.956c-11.169,1.052-16.454,4.978-16.454,4.978s4.971,4.264,15.981,6.099
		c1.986-0.91,4.208-1.788,6.69-2.595C285.456,382.236,288.889,381.497,291.897,381.087z"/>
	<path fill="#7CB9E4" stroke="#5361AC" stroke-miterlimit="10" d="M305.952,381.515c-0.002-0.077-0.003-0.156-0.004-0.245
		c-0.122-0.146-0.255-0.311-0.399-0.495c-0.548-0.348-1.204-0.796-1.952-1.366c-2.651-1.339-6.8-2.946-12.59-3.884
		c3.88,2.663,7.286,4.271,9.921,5.233c2.367,0.184,4.01,0.556,4.861,0.791C305.845,381.537,305.904,381.525,305.952,381.515z"/>
	<path fill="#7CB9E4" stroke="#5361AC" stroke-miterlimit="10" d="M291.667,386.554c-2.591,0.285-5.51,0.421-8.778,0.306
		c-2.941-0.102-5.587-0.387-7.958-0.781c-10.649,4.878-14.426,10.619-14.426,10.619s6.274,2.359,17.489,0.19
		c1.625-1.628,3.507-3.318,5.702-5.032C286.535,389.637,289.212,387.906,291.667,386.554z"/>
	<path fill="#7CB9E4" stroke="#5361AC" stroke-miterlimit="10" d="M305.954,381.597c-0.053-0.015-0.105-0.031-0.165-0.048
		c-0.341,0.073-0.828,0.162-1.457,0.244c0.138,0.032,0.269,0.062,0.395,0.09c0.529-0.072,0.94-0.106,1.231-0.125
		C305.957,381.706,305.955,381.654,305.954,381.597z"/>
	<path fill="#7CB9E4" stroke="#5361AC" stroke-miterlimit="10" d="M300.928,380.758c-2.329-0.18-5.359-0.172-9.031,0.329
		c5.846,1.205,10.106,1.011,12.436,0.706C303.425,381.578,302.279,381.253,300.928,380.758z"/>
	<path fill="#7CB9E4" stroke="#5361AC" stroke-miterlimit="10" d="M295.185,390.815c-2.695,1.455-5.944,2.897-9.83,4.158
		c-2.649,0.862-5.103,1.477-7.361,1.914c-8.069,8.085-9.621,14.606-9.621,14.606s7.021,0.076,17.196-6.227
		c0.919-1.92,2.027-3.96,3.369-6.107C291.045,395.788,293.169,393.046,295.185,390.815z"/>
	<path fill="#7CB9E4" stroke="#5361AC" stroke-miterlimit="10" d="M305.986,382.248c-0.004-0.034-0.006-0.077-0.011-0.132
		c-0.315-0.047-0.737-0.122-1.248-0.233c-2.374,0.32-7.042,1.354-13.062,4.671c5.321-0.585,9.233-1.818,11.804-2.9
		C304.538,382.978,305.398,382.527,305.986,382.248z"/>
	<path fill="#7CB9E4" stroke="#5361AC" stroke-miterlimit="10" d="M306.474,382.207c-0.012-0.009-0.021-0.016-0.031-0.023
		c-0.043,0.025-0.093,0.054-0.14,0.081c-0.01,0.032-0.019,0.061-0.031,0.094c0.041-0.01,0.089-0.021,0.141-0.032
		C306.435,382.283,306.456,382.241,306.474,382.207z"/>
	<path fill="#7CB9E4" stroke="#5361AC" stroke-miterlimit="10" d="M299.817,393.105c-2.159,2.562-4.988,5.384-8.683,8.271
		c-1.938,1.515-3.798,2.797-5.566,3.891c-5.116,10.684-4.312,17.587-4.312,17.587s6.617-2.325,14.018-11.716
		c0.206-2.149,0.554-4.486,1.09-7.005C297.296,399.742,298.523,396.097,299.817,393.105z"/>
	<path fill="#7CB9E4" stroke="#5361AC" stroke-miterlimit="10" d="M306.176,382.642c-0.038,0.109-0.079,0.224-0.126,0.349
		c0.031-0.033,0.059-0.064,0.089-0.096c0.03-0.065,0.057-0.122,0.084-0.181C306.207,382.69,306.189,382.663,306.176,382.642z"/>
	<path fill="#7CB9E4" stroke="#5361AC" stroke-miterlimit="10" d="M306.395,382.172c0.013,0.002,0.028,0.003,0.04,0.004
		c-0.006-0.005-0.013-0.01-0.018-0.014C306.41,382.166,306.403,382.168,306.395,382.172z"/>
	<path fill="#7CB9E4" stroke="#5361AC" stroke-miterlimit="10" d="M306.063,382.308c-0.042,0.052-0.089,0.111-0.138,0.17
		c0.136-0.075,0.262-0.146,0.377-0.213c0.006-0.021,0.015-0.043,0.021-0.062C306.204,382.252,306.118,382.287,306.063,382.308z"/>
	<path fill="#7CB9E4" stroke="#5361AC" stroke-miterlimit="10" d="M303.471,383.653c-2.123,1.346-5.063,3.593-8.286,7.162
		c6.3-3.402,9.553-6.879,10.741-8.338C305.32,382.811,304.505,383.219,303.471,383.653z"/>
	<path fill="#7CB9E4" stroke="#5361AC" stroke-miterlimit="10" d="M303.352,397.71c-1.054,2.413-2.41,5.042-4.167,7.854
		c-1.307,2.091-2.621,3.938-3.912,5.574c-1.124,11.717,1.975,17.888,1.975,17.888s4.796-3.938,8.481-13.851
		c-0.707-2.453-1.324-5.242-1.767-8.394C303.489,403.415,303.322,400.394,303.352,397.71z"/>
	<path fill="#7CB9E4" stroke="#5361AC" stroke-miterlimit="10" d="M306.049,382.99c-1.453,1.6-3.945,4.829-6.232,10.115
		C303.641,388.564,305.36,384.837,306.049,382.99z"/>
	<path fill="#7CB9E4" stroke="#5361AC" stroke-miterlimit="10" d="M309.455,397.11c-0.139,2.811-0.52,5.991-1.273,9.534
		c-0.688,3.237-1.537,6.066-2.453,8.531c2.983,10.354,7.578,14.696,7.578,14.696s3.696-6.243,3.186-18.6
		c-1.065-1.599-2.135-3.372-3.186-5.348C311.607,402.727,310.362,399.773,309.455,397.11z"/>
	<path fill="#7CB9E4" stroke="#5361AC" stroke-miterlimit="10" d="M307.124,383.965c-0.048,2.516,0.262,7.074,2.331,13.146
		c0.174-3.546-0.043-6.497-0.396-8.835c-0.867-1.673-1.435-3.081-1.799-4.137C307.213,384.077,307.169,384.021,307.124,383.965z"/>
	<path fill="#7CB9E4" stroke="#5361AC" stroke-miterlimit="10" d="M306.139,382.895c-0.864,1.895-2.701,6.851-2.787,14.815
		c2.875-6.586,3.467-11.54,3.549-14.035c-0.291-0.386-0.505-0.694-0.644-0.907C306.218,382.808,306.179,382.851,306.139,382.895z"/>
	<path fill="#7CB9E4" stroke="#5361AC" stroke-miterlimit="10" d="M304.259,364.002c0.2-2.267,0.554-4.742,1.126-7.429
		c0.616-2.902,1.363-5.475,2.17-7.755c-2.984-10.226-7.526-14.519-7.526-14.519s-3.188,5.386-3.233,16.053
		c1.49,2.05,3.009,4.441,4.49,7.227C302.492,359.849,303.469,361.995,304.259,364.002z"/>
	<path fill="#7CB9E4" stroke="#5361AC" stroke-miterlimit="10" d="M305.955,380.742c-0.001-0.006-0.001-0.012,0-0.019
		c-0.268-0.692-0.666-1.866-1.029-3.515c-1.066-2.285-2.749-5.219-5.38-8.521c1.266,4.027,2.756,7.063,4.055,9.225
		c1.164,1.224,1.914,2.21,2.338,2.819C305.944,380.735,305.948,380.739,305.955,380.742z"/>
	<path fill="#7CB9E4" stroke="#5361AC" stroke-miterlimit="10" d="M305.955,380.756c-0.006-0.008-0.012-0.017-0.017-0.023
		c-0.231-0.148-0.493-0.309-0.787-0.481c0.14,0.189,0.273,0.364,0.397,0.523c0.141,0.089,0.274,0.172,0.4,0.247
		C305.95,380.938,305.952,380.847,305.955,380.756z"/>
	<path fill="#7CB9E4" stroke="#5361AC" stroke-miterlimit="10" d="M309.986,365.433c0.979-2.118,2.188-4.389,3.69-6.794
		c1.542-2.467,3.092-4.594,4.603-6.434c1.156-11.797-1.961-18.014-1.961-18.014s-5.045,4.143-8.764,14.627
		c0.729,2.497,1.365,5.342,1.82,8.571C309.788,360.333,309.967,363.012,309.986,365.433z"/>
	<path fill="#7CB9E4" stroke="#5361AC" stroke-miterlimit="10" d="M307.002,373.711c-0.44-2.675-1.261-5.944-2.743-9.709
		c-0.515,5.84,0.018,10.271,0.666,13.207c0.465,0.997,0.813,1.869,1.071,2.594C306.089,378.337,306.351,376.271,307.002,373.711z"/>
	<path fill="#7CB9E4" stroke="#5361AC" stroke-miterlimit="10" d="M314.101,369.281c2.021-2.265,4.554-4.697,7.733-7.18
		c2.057-1.606,4.026-2.957,5.891-4.095c4.636-10.153,3.881-16.659,3.881-16.659s-6.209,2.186-13.326,10.857
		c-0.207,2.115-0.551,4.408-1.076,6.879C316.355,363.075,315.264,366.452,314.101,369.281z"/>
	<path fill="#7CB9E4" stroke="#5361AC" stroke-miterlimit="10" d="M306.362,382.076c0.082-0.037,0.154-0.067,0.218-0.094
		c-0.042-0.044-0.091-0.096-0.146-0.154C306.419,381.883,306.395,381.967,306.362,382.076z"/>
	<path fill="#7CB9E4" stroke="#5361AC" stroke-miterlimit="10" d="M306.33,381.713c-0.063-0.07-0.132-0.148-0.209-0.238
		c-0.049,0.013-0.104,0.025-0.169,0.04c0,0.027,0.001,0.056,0.002,0.082C306.118,381.646,306.245,381.685,306.33,381.713z"/>
	<path fill="#7CB9E4" stroke="#5361AC" stroke-miterlimit="10" d="M306.179,382.158c0.008-0.003,0.017-0.008,0.023-0.01
		c-0.004-0.002-0.009-0.002-0.013-0.002C306.186,382.149,306.182,382.154,306.179,382.158z"/>
	<path fill="#7CB9E4" stroke="#5361AC" stroke-miterlimit="10" d="M306.428,381.821c-0.023-0.024-0.048-0.054-0.073-0.082
		c-0.082,0.002-0.216,0.007-0.396,0.019c0.005,0.146,0.011,0.269,0.017,0.358c0.078,0.011,0.148,0.021,0.213,0.03
		C306.308,381.99,306.387,381.882,306.428,381.821z"/>
	<path fill="#7CB9E4" stroke="#5361AC" stroke-miterlimit="10" d="M306.323,382.202c0.023-0.011,0.045-0.019,0.071-0.03
		c-0.018-0.002-0.039-0.005-0.06-0.008C306.332,382.177,306.327,382.19,306.323,382.202z"/>
	<path fill="#7CB9E4" stroke="#5361AC" stroke-miterlimit="10" d="M306.335,382.164c0.011-0.032,0.018-0.059,0.027-0.088
		c-0.05,0.022-0.101,0.045-0.16,0.072C306.251,382.154,306.294,382.159,306.335,382.164z"/>
	<path fill="#7CB9E4" stroke="#5361AC" stroke-miterlimit="10" d="M305.986,382.248c0.003,0.053,0.008,0.084,0.008,0.084
		s0.027-0.009,0.069-0.024c0.043-0.055,0.08-0.103,0.115-0.149C306.118,382.187,306.055,382.215,305.986,382.248z"/>
	<path fill="#7CB9E4" stroke="#5361AC" stroke-miterlimit="10" d="M306.715,381.057c-0.042,0.04-0.084,0.082-0.121,0.116
		c0.022,0.016,0.046,0.032,0.067,0.047C306.679,381.168,306.695,381.116,306.715,381.057z"/>
	<path fill="#7CB9E4" stroke="#5361AC" stroke-miterlimit="10" d="M306.632,381.955c0.056-0.038,0.123-0.081,0.199-0.128
		c-0.108-0.034-0.192-0.062-0.246-0.079C306.604,381.826,306.619,381.896,306.632,381.955z"/>
	<path fill="#7CB9E4" stroke="#5361AC" stroke-miterlimit="10" d="M306.605,381.402c-0.042-0.023-0.083-0.046-0.127-0.071
		c0.027,0.097,0.05,0.186,0.07,0.267C306.562,381.546,306.582,381.479,306.605,381.402z"/>
	<path fill="#7CB9E4" stroke="#5361AC" stroke-miterlimit="10" d="M305.983,380.796c-0.006-0.015-0.012-0.031-0.019-0.046
		c-0.003-0.003-0.007-0.005-0.01-0.008c0,0.005,0,0.009,0,0.014C305.963,380.769,305.974,380.783,305.983,380.796z"/>
	<path fill="#7CB9E4" stroke="#5361AC" stroke-miterlimit="10" d="M306.467,381.29c-0.007,0.009-0.015,0.016-0.023,0.021
		c0.012,0.007,0.022,0.013,0.034,0.02C306.475,381.317,306.471,381.305,306.467,381.29z"/>
	<path fill="#7CB9E4" stroke="#5361AC" stroke-miterlimit="10" d="M306.377,381.408c0,0-0.004-0.008-0.014-0.023
		c-0.02,0.018-0.033,0.029-0.046,0.041C306.352,381.416,306.377,381.408,306.377,381.408z"/>
	<path fill="#7CB9E4" stroke="#5361AC" stroke-miterlimit="10" d="M306.257,381.44c-0.02-0.043-0.072-0.153-0.142-0.317
		c-0.053-0.031-0.111-0.067-0.167-0.102c-0.001,0.09-0.001,0.169-0.001,0.248c0.061,0.072,0.119,0.143,0.173,0.205
		C306.176,381.462,306.22,381.45,306.257,381.44z"/>
	<path fill="#7CB9E4" stroke="#5361AC" stroke-miterlimit="10" d="M306.33,381.713c0.009,0.01,0.017,0.018,0.025,0.026
		c0.022-0.001,0.038,0,0.052-0.001C306.386,381.731,306.362,381.724,306.33,381.713z"/>
	<path fill="#7CB9E4" stroke="#5361AC" stroke-miterlimit="10" d="M306.469,381.761c0,0-0.009-0.003-0.016-0.006
		c-0.003,0.009-0.007,0.026-0.012,0.048C306.458,381.778,306.469,381.761,306.469,381.761z"/>
	<path fill="#7CB9E4" stroke="#5361AC" stroke-miterlimit="10" d="M306.457,381.738c0,0-0.021,0-0.05,0
		c0.022,0.009,0.037,0.014,0.046,0.017C306.455,381.748,306.457,381.738,306.457,381.738z"/>
	<path fill="#7CB9E4" stroke="#5361AC" stroke-miterlimit="10" d="M306.441,381.803c-0.004,0.006-0.009,0.013-0.013,0.019
		c0.002,0.002,0.004,0.004,0.006,0.007C306.436,381.818,306.438,381.812,306.441,381.803z"/>
	<path fill="#7CB9E4" stroke="#5361AC" stroke-miterlimit="10" d="M306.58,381.982c0.001,0.002,0.001,0.003,0.003,0.004
		c0.007-0.005,0.017-0.011,0.025-0.016C306.599,381.975,306.588,381.979,306.58,381.982z"/>
	<path fill="#7CB9E4" stroke="#5361AC" stroke-miterlimit="10" d="M308.777,376.585c0.676-2.724,1.247-6.445,1.209-11.152
		c-1.445,3.128-2.382,5.914-2.984,8.278c0.373,2.26,0.475,4.093,0.471,5.435C307.799,378.418,308.227,377.557,308.777,376.585z"/>
	<path fill="#7CB9E4" stroke="#5361AC" stroke-miterlimit="10" d="M306.394,381.033c-0.099-0.342-0.229-0.754-0.398-1.23
		c-0.022,0.34-0.035,0.646-0.042,0.921c0.003,0.008,0.007,0.018,0.01,0.026C306.123,380.851,306.266,380.946,306.394,381.033z"/>
	<path fill="#7CB9E4" stroke="#5361AC" stroke-miterlimit="10" d="M306.595,381.173c-0.062-0.044-0.128-0.09-0.201-0.14
		c0.026,0.09,0.051,0.179,0.073,0.257C306.505,381.257,306.547,381.218,306.595,381.173z"/>
	<path fill="#7CB9E4" stroke="#5361AC" stroke-miterlimit="10" d="M306.444,381.312c-0.061-0.034-0.126-0.072-0.193-0.109
		c0.057,0.089,0.094,0.151,0.112,0.183C306.386,381.364,306.413,381.341,306.444,381.312z"/>
	<path fill="#7CB9E4" stroke="#5361AC" stroke-miterlimit="10" d="M306.317,381.426c-0.017,0.004-0.035,0.009-0.06,0.015
		c0.008,0.018,0.012,0.025,0.012,0.025S306.289,381.449,306.317,381.426z"/>
	<path fill="#7CB9E4" stroke="#5361AC" stroke-miterlimit="10" d="M305.983,380.796c0.049,0.129,0.093,0.235,0.133,0.327
		c0.048,0.027,0.09,0.052,0.135,0.079C306.188,381.101,306.097,380.963,305.983,380.796z"/>
	<path fill="#7CB9E4" stroke="#5361AC" stroke-miterlimit="10" d="M318.762,372.147c2.493-1.278,5.425-2.53,8.852-3.644
		c2.648-0.861,5.102-1.477,7.361-1.913c8.068-8.084,9.621-14.605,9.621-14.605s-6.871-0.079-16.871,6.021
		c-0.998,2.186-2.241,4.539-3.802,7.034C322.191,367.814,320.447,370.159,318.762,372.147z"/>
	<path fill="#7CB9E4" stroke="#5361AC" stroke-miterlimit="10" d="M307.427,380.546c0.052-0.061,0.101-0.118,0.158-0.182
		c0.047-0.12,0.097-0.246,0.146-0.379c-0.101,0.116-0.198,0.224-0.291,0.324C307.436,380.392,307.432,380.471,307.427,380.546z"/>
	<path fill="#7CB9E4" stroke="#5361AC" stroke-miterlimit="10" d="M306.793,381.313c-0.042-0.03-0.084-0.06-0.132-0.094
		c-0.021,0.066-0.041,0.128-0.057,0.183c0.028,0.015,0.059,0.031,0.085,0.046C306.722,381.407,306.754,381.363,306.793,381.313z"/>
	<path fill="#7CB9E4" stroke="#5361AC" stroke-miterlimit="10" d="M306.51,381.739c0,0,0.021,0.001,0.051,0
		c-0.021-0.009-0.037-0.015-0.046-0.017C306.513,381.729,306.51,381.739,306.51,381.739z"/>
	<path fill="#7CB9E4" stroke="#5361AC" stroke-miterlimit="10" d="M306.547,381.598c-0.008,0.032-0.015,0.057-0.021,0.077
		c0.009-0.011,0.017-0.024,0.03-0.042C306.553,381.621,306.551,381.61,306.547,381.598z"/>
	<path fill="#7CB9E4" stroke="#5361AC" stroke-miterlimit="10" d="M307.73,379.985c1.557-1.761,4.099-5.183,6.37-10.704
		c-2.471,2.765-4.171,5.272-5.323,7.304C308.433,377.981,308.061,379.113,307.73,379.985z"/>
	<path fill="#7CB9E4" stroke="#5361AC" stroke-miterlimit="10" d="M307.473,379.146c-0.367,0.818-0.609,1.469-0.757,1.911
		c0.189-0.183,0.433-0.431,0.724-0.747C307.458,379.976,307.471,379.589,307.473,379.146z"/>
	<path fill="#7CB9E4" stroke="#5361AC" stroke-miterlimit="10" d="M352.464,366.782c0,0-6.274-2.359-17.489-0.191
		c-1.626,1.628-3.508,3.318-5.703,5.032c-3.219,2.517-6.231,4.403-8.944,5.824c2.976-0.424,6.438-0.651,10.411-0.513
		c2.53,0.088,4.842,0.311,6.947,0.622C348.6,372.646,352.464,366.782,352.464,366.782z"/>
	<path fill="#7CB9E4" stroke="#5361AC" stroke-miterlimit="10" d="M306.98,381.734c0.006-0.005,0.014-0.009,0.021-0.014
		c-0.005,0-0.011,0.001-0.016,0.002C306.984,381.726,306.982,381.73,306.98,381.734z"/>
	<path fill="#7CB9E4" stroke="#5361AC" stroke-miterlimit="10" d="M306.498,381.717c0,0,0.009,0.004,0.016,0.006
		c0.003-0.01,0.007-0.025,0.012-0.048C306.51,381.699,306.498,381.717,306.498,381.717z"/>
	<path fill="#7CB9E4" stroke="#5361AC" stroke-miterlimit="10" d="M306.561,381.739c0.009,0.002,0.016,0.004,0.024,0.009
		c0-0.004-0.002-0.006-0.002-0.009C306.575,381.739,306.568,381.738,306.561,381.739z"/>
	<path fill="#7CB9E4" stroke="#5361AC" stroke-miterlimit="10" d="M307.33,381.526c0.559-0.324,1.363-0.749,2.426-1.215
		c2.334-1.526,5.545-4.081,9.006-8.164c-6.117,3.136-9.584,6.428-11.177,8.217c-0.062,0.153-0.12,0.296-0.177,0.43
		C307.383,381.122,307.354,381.365,307.33,381.526z"/>
	<path fill="#7CB9E4" stroke="#5361AC" stroke-miterlimit="10" d="M307.102,381.661c0.027-0.018,0.053-0.032,0.082-0.05
		c-0.025-0.022-0.06-0.049-0.104-0.083c-0.018,0.036-0.032,0.066-0.047,0.099C307.059,381.639,307.08,381.65,307.102,381.661z"/>
	<path fill="#7CB9E4" stroke="#5361AC" stroke-miterlimit="10" d="M307.08,381.528c0.094-0.196,0.206-0.444,0.328-0.734
		c0.006-0.076,0.012-0.162,0.019-0.248c-0.274,0.313-0.484,0.573-0.633,0.768C306.912,381.4,307.009,381.474,307.08,381.528z"/>
	<path fill="#7CB9E4" stroke="#5361AC" stroke-miterlimit="10" d="M306.583,381.739c0.074-0.001,0.208-0.006,0.404-0.017
		c0.014-0.03,0.029-0.062,0.047-0.096c-0.092-0.047-0.205-0.104-0.343-0.179c-0.057,0.076-0.103,0.142-0.134,0.185
		C306.565,381.669,306.575,381.706,306.583,381.739z"/>
	<path fill="#7CB9E4" stroke="#5361AC" stroke-miterlimit="10" d="M306.878,381.992c0.039,0.004,0.084,0.011,0.132,0.016
		c0.039-0.035,0.075-0.069,0.106-0.098c-0.034-0.009-0.063-0.018-0.095-0.027c-0.05,0.024-0.101,0.049-0.146,0.071
		C306.876,381.967,306.876,381.978,306.878,381.992z"/>
	<path fill="#7CB9E4" stroke="#5361AC" stroke-miterlimit="10" d="M319.634,382.569c3.204,0.599,6.913,1.62,11.075,3.302
		c2.388,0.965,4.52,1.982,6.418,3.015c11.922-0.885,17.551-5.07,17.551-5.07s-5.273-4.526-16.992-6.259
		c-1.896,0.854-3.999,1.68-6.338,2.438C326.888,381.444,322.967,382.212,319.634,382.569z"/>
	<path fill="#7CB9E4" stroke="#5361AC" stroke-miterlimit="10" d="M306.452,382.178c0.014,0.003,0.023,0.002,0.036,0.004
		c0.007-0.014,0.014-0.024,0.02-0.037C306.488,382.155,306.472,382.166,306.452,382.178z"/>
	<path fill="#7CB9E4" stroke="#5361AC" stroke-miterlimit="10" d="M306.651,382.058c-0.004,0.003-0.01,0.006-0.015,0.01
		c0.009,0.008,0.014,0.013,0.024,0.023c-0.001-0.009-0.004-0.021-0.006-0.031C306.654,382.06,306.653,382.059,306.651,382.058z"/>
	<path fill="#7CB9E4" stroke="#5361AC" stroke-miterlimit="10" d="M306.435,382.176c0.003,0.002,0.006,0.005,0.008,0.008
		c0.003-0.002,0.006-0.004,0.009-0.006C306.445,382.177,306.441,382.177,306.435,382.176z"/>
	<path fill="#7CB9E4" stroke="#5361AC" stroke-miterlimit="10" d="M307.438,382.068c-0.01-0.026-0.023-0.057-0.033-0.08
		c-0.049-0.013-0.093-0.024-0.139-0.037c-0.005,0.027-0.008,0.056-0.013,0.09C307.311,382.048,307.372,382.057,307.438,382.068z"/>
	<path fill="#7CB9E4" stroke="#5361AC" stroke-miterlimit="10" d="M306.714,382.261c-0.012-0.058-0.023-0.106-0.03-0.147
		c-0.007-0.006-0.017-0.016-0.023-0.022c0.014,0.071,0.02,0.108,0.02,0.108s-0.069-0.006-0.192-0.018
		c-0.004,0.01-0.008,0.016-0.014,0.025c0.029,0.023,0.062,0.051,0.104,0.082C306.623,382.279,306.664,382.271,306.714,382.261z"/>
	<path fill="#7CB9E4" stroke="#5361AC" stroke-miterlimit="10" d="M306.635,382.066c-0.041,0.017-0.074,0.032-0.112,0.049
		c-0.003,0.008-0.01,0.021-0.015,0.029c0.044-0.026,0.088-0.054,0.129-0.077C306.636,382.066,306.635,382.066,306.635,382.066z"/>
	<path fill="#7CB9E4" stroke="#5361AC" stroke-miterlimit="10" d="M306.865,381.958c-0.021,0.01-0.039,0.018-0.059,0.027
		c0.013,0.002,0.027,0.003,0.042,0.005C306.854,381.979,306.86,381.971,306.865,381.958z"/>
	<path fill="#7CB9E4" stroke="#5361AC" stroke-miterlimit="10" d="M306.654,382.056c0.001,0.002,0,0.003,0.001,0.004
		c0.006,0.008,0.015,0.017,0.022,0.022c-0.003-0.015-0.005-0.021-0.006-0.032C306.665,382.052,306.659,382.055,306.654,382.056z"/>
	<path fill="#7CB9E4" stroke="#5361AC" stroke-miterlimit="10" d="M306.892,381.907c0.025-0.015,0.044-0.028,0.065-0.042
		c-0.012-0.004-0.026-0.008-0.038-0.012C306.91,381.872,306.9,381.892,306.892,381.907z"/>
	<path fill="#7CB9E4" stroke="#5361AC" stroke-miterlimit="10" d="M306.875,381.954c-0.001-0.004-0.001-0.009-0.001-0.012
		c-0.003,0.007-0.005,0.01-0.008,0.016C306.869,381.956,306.872,381.956,306.875,381.954z"/>
	<path fill="#7CB9E4" stroke="#5361AC" stroke-miterlimit="10" d="M306.635,382.066c0.005-0.003,0.012-0.007,0.017-0.009
		c-0.02-0.021-0.041-0.042-0.069-0.071c-0.137,0.092-0.205,0.143-0.205,0.143s0.016,0.014,0.04,0.033
		c0.032-0.014,0.07-0.031,0.105-0.047c0.038-0.068,0.058-0.104,0.058-0.104S306.603,382.032,306.635,382.066z"/>
	<path fill="#7CB9E4" stroke="#5361AC" stroke-miterlimit="10" d="M306.874,381.942c0.005-0.011,0.013-0.023,0.018-0.035
		c-0.006,0.005-0.013,0.01-0.02,0.013C306.873,381.927,306.874,381.935,306.874,381.942z"/>
	<path fill="#7CB9E4" stroke="#5361AC" stroke-miterlimit="10" d="M306.633,381.96c0-0.002,0-0.004,0-0.005
		c-0.009,0.004-0.017,0.011-0.025,0.016C306.615,381.967,306.625,381.963,306.633,381.96z"/>
	<path fill="#7CB9E4" stroke="#5361AC" stroke-miterlimit="10" d="M306.67,382.047c-0.01-0.045-0.015-0.075-0.015-0.075
		s0.041,0.003,0.118,0.01c0.033-0.02,0.068-0.042,0.098-0.062c-0.003-0.03-0.005-0.051-0.005-0.051s-0.08,0.028-0.233,0.091
		c0.009,0.038,0.015,0.067,0.021,0.096C306.658,382.054,306.664,382.051,306.67,382.047z"/>
	<polygon fill="#7CB9E4" stroke="#5361AC" stroke-miterlimit="10" points="307.295,381.752 307.297,381.746 307.289,381.749 	"/>
	<path fill="#7CB9E4" stroke="#5361AC" stroke-miterlimit="10" d="M307.764,382.079c0.046-0.007,0.097-0.013,0.145-0.02
		c-0.396-0.214-0.613-0.308-0.613-0.308s0.041,0.081,0.109,0.236C307.516,382.019,307.633,382.049,307.764,382.079z"/>
	<path fill="#7CB9E4" stroke="#5361AC" stroke-miterlimit="10" d="M307.266,381.951c0.017-0.128,0.029-0.199,0.029-0.199
		s-0.063,0.053-0.179,0.158C307.162,381.923,307.215,381.938,307.266,381.951z"/>
	<path fill="#7CB9E4" stroke="#5361AC" stroke-miterlimit="10" d="M307.297,381.746c0.035-0.018,0.074-0.038,0.111-0.057
		c-0.037,0.003-0.07,0.006-0.104,0.01C307.301,381.726,307.299,381.741,307.297,381.746z"/>
	<path fill="#7CB9E4" stroke="#5361AC" stroke-miterlimit="10" d="M306.957,381.865c0.021,0.005,0.043,0.012,0.064,0.018
		c0.085-0.041,0.173-0.086,0.268-0.134c-0.006-0.002-0.034-0.015-0.091-0.042c-0.003,0.001-0.006,0.001-0.008,0.002
		C307.144,381.741,307.065,381.794,306.957,381.865z"/>
	<path fill="#7CB9E4" stroke="#5361AC" stroke-miterlimit="10" d="M306.919,381.854c0.02-0.037,0.039-0.075,0.062-0.119
		c-0.055,0.033-0.103,0.063-0.149,0.093C306.86,381.836,306.886,381.844,306.919,381.854z"/>
	<path fill="#7CB9E4" stroke="#5361AC" stroke-miterlimit="10" d="M307.408,381.689c1.874-0.169,6.574-0.922,12.919-4.242
		c-4.763,0.676-8.269,1.856-10.571,2.864C308.816,380.926,308.021,381.374,307.408,381.689z"/>
	<path fill="#7CB9E4" stroke="#5361AC" stroke-miterlimit="10" d="M307.249,381.665c0,0-0.021,0.017-0.056,0.04
		c0.002,0.001,0.004,0.001,0.005,0.002c0.033-0.002,0.072-0.006,0.106-0.008c0.006-0.038,0.016-0.095,0.025-0.173
		c-0.049,0.028-0.101,0.058-0.146,0.085C307.226,381.644,307.249,381.665,307.249,381.665z"/>
	<path fill="#7CB9E4" stroke="#5361AC" stroke-miterlimit="10" d="M307.002,381.721c0.059-0.004,0.118-0.007,0.188-0.012
		c0.001-0.002,0.002-0.003,0.003-0.004c-0.024-0.012-0.059-0.027-0.092-0.044C307.068,381.681,307.033,381.701,307.002,381.721z"/>
	<path fill="#7CB9E4" stroke="#5361AC" stroke-miterlimit="10" d="M321.476,388.073c2.241,1.477,4.653,3.304,7.181,5.579
		c2.365,2.129,4.331,4.2,5.971,6.158c10.277,2.488,16.225,0.715,16.225,0.715s-3.385-6.02-13.725-11.64
		c-2.08,0.154-4.346,0.211-6.811,0.125C327.004,388.895,324.065,388.549,321.476,388.073z"/>
	<path fill="#7CB9E4" stroke="#5361AC" stroke-miterlimit="10" d="M306.041,382.42c0,0,0.044,0.078,0.135,0.222
		c0.037-0.104,0.068-0.196,0.096-0.283C306.12,382.396,306.041,382.42,306.041,382.42z"/>
	<path fill="#7CB9E4" stroke="#5361AC" stroke-miterlimit="10" d="M306.413,382.326c-0.052,0.103-0.117,0.232-0.189,0.388
		c0.01,0.018,0.021,0.033,0.034,0.054c0.148-0.159,0.282-0.298,0.401-0.417c-0.027-0.021-0.057-0.043-0.08-0.062
		C306.519,382.303,306.462,382.315,306.413,382.326z"/>
	<path fill="#7CB9E4" stroke="#5361AC" stroke-miterlimit="10" d="M306.912,383.031c0,0.192-0.003,0.406-0.011,0.644
		c0.07,0.093,0.144,0.188,0.223,0.29c0.001-0.076,0.003-0.146,0.006-0.219C307.043,383.479,306.971,383.241,306.912,383.031z"/>
	<path fill="#7CB9E4" stroke="#5361AC" stroke-miterlimit="10" d="M307.635,382.099c0.152,0.025,0.329,0.059,0.517,0.095
		c-0.028-0.016-0.054-0.029-0.081-0.044c-0.105-0.023-0.211-0.047-0.307-0.07C307.719,382.086,307.678,382.092,307.635,382.099z"/>
	<path fill="#7CB9E4" stroke="#5361AC" stroke-miterlimit="10" d="M306.658,382.351c0.029,0.021,0.059,0.044,0.094,0.069
		c-0.012-0.049-0.021-0.09-0.031-0.132C306.7,382.308,306.68,382.329,306.658,382.351z"/>
	<path fill="#7CB9E4" stroke="#5361AC" stroke-miterlimit="10" d="M319.634,382.569c-5.539-1.039-9.553-0.812-11.726-0.51
		c0.049,0.026,0.108,0.06,0.162,0.09C310.096,382.602,314.028,383.167,319.634,382.569z"/>
	<path fill="#7CB9E4" stroke="#5361AC" stroke-miterlimit="10" d="M326.182,397.074c-2.096-0.848-3.99-1.736-5.708-2.64
		c1.169,1.719,2.348,3.647,3.501,5.817c1.48,2.784,2.615,5.383,3.481,7.765c8.868,5.927,15.116,6.296,15.116,6.296
		s-1.03-6.238-7.945-14.502C332.07,399.192,329.25,398.313,326.182,397.074z"/>
	<path fill="#7CB9E4" stroke="#5361AC" stroke-miterlimit="10" d="M309.059,388.275c1.064,2.054,2.582,4.508,4.732,7.206
		c-1.035-3.291-2.221-5.922-3.328-7.953c-0.739-0.679-1.372-1.315-1.908-1.896C308.734,386.402,308.909,387.283,309.059,388.275z"/>
	<path fill="#7CB9E4" stroke="#5361AC" stroke-miterlimit="10" d="M307.463,382.126c0.055-0.01,0.112-0.018,0.172-0.027
		c-0.07-0.012-0.133-0.021-0.197-0.03C307.447,382.087,307.453,382.104,307.463,382.126z"/>
	<path fill="#7CB9E4" stroke="#5361AC" stroke-miterlimit="10" d="M306.754,382.159c0,0-0.027-0.025-0.078-0.077
		c0.001,0.01,0.004,0.022,0.007,0.031c0.028,0.029,0.062,0.066,0.103,0.109c0.037-0.037,0.068-0.066,0.101-0.099
		c-0.003-0.051-0.006-0.095-0.009-0.132c-0.012,0-0.02-0.001-0.029-0.002C306.79,382.099,306.754,382.159,306.754,382.159z"/>
	<path fill="#7CB9E4" stroke="#5361AC" stroke-miterlimit="10" d="M306.893,382.226c0.105-0.021,0.22-0.041,0.344-0.062
		c0.006-0.045,0.011-0.085,0.016-0.122c-0.091-0.014-0.172-0.024-0.243-0.033c-0.036,0.035-0.078,0.075-0.123,0.116
		C306.89,382.154,306.892,382.19,306.893,382.226z"/>
	<path fill="#7CB9E4" stroke="#5361AC" stroke-miterlimit="10" d="M306.757,382.251c0.015-0.002,0.033-0.005,0.049-0.009
		c-0.006-0.006-0.013-0.015-0.02-0.02C306.777,382.231,306.766,382.242,306.757,382.251z"/>
	<path fill="#7CB9E4" stroke="#5361AC" stroke-miterlimit="10" d="M306.67,382.05c0.042-0.021,0.089-0.042,0.136-0.064
		c-0.01-0.001-0.023-0.003-0.033-0.004c-0.034,0.022-0.065,0.041-0.103,0.065C306.669,382.048,306.67,382.049,306.67,382.05z"/>
	<path fill="#7CB9E4" stroke="#5361AC" stroke-miterlimit="10" d="M308.039,383.725c0.672,0.892,1.521,2.15,2.424,3.804
		c2.258,2.077,5.507,4.539,10.011,6.906c-2.705-3.977-5.362-6.806-7.575-8.766c-2.305-0.912-3.971-1.829-5.043-2.502
		C307.914,383.339,307.975,383.521,308.039,383.725z"/>
	<path fill="#7CB9E4" stroke="#5361AC" stroke-miterlimit="10" d="M307.182,382.727c-0.021,0.281-0.04,0.625-0.052,1.02
		c0.04,0.126,0.084,0.255,0.13,0.393c0.348,0.432,0.779,0.938,1.295,1.494c-0.174-0.739-0.352-1.379-0.516-1.908
		c-0.274-0.363-0.517-0.664-0.724-0.907C307.271,382.785,307.224,382.755,307.182,382.727z"/>
	<path fill="#7CB9E4" stroke="#5361AC" stroke-miterlimit="10" d="M306.751,382.42c0.038,0.161,0.092,0.368,0.16,0.611
		c0-0.187-0.001-0.356-0.005-0.499C306.849,382.492,306.798,382.455,306.751,382.42z"/>
	<path fill="#7CB9E4" stroke="#5361AC" stroke-miterlimit="10" d="M321.476,388.073c-6.153-4.054-11.005-5.426-13.324-5.88
		c0.957,0.539,2.653,1.621,4.747,3.476C315.141,386.556,317.99,387.434,321.476,388.073z"/>
	<path fill="#7CB9E4" stroke="#5361AC" stroke-miterlimit="10" d="M307.188,382.666c0.041,0.048,0.083,0.099,0.128,0.151
		c0.159,0.107,0.339,0.224,0.54,0.35c-0.156-0.457-0.293-0.807-0.393-1.041c-0.078,0.013-0.153,0.023-0.226,0.037
		C307.222,382.298,307.204,382.467,307.188,382.666z"/>
	<path fill="#7CB9E4" stroke="#5361AC" stroke-miterlimit="10" d="M306.806,382.242c0.03,0.031,0.059,0.062,0.093,0.1
		c-0.002-0.043-0.004-0.08-0.006-0.116C306.863,382.231,306.834,382.236,306.806,382.242z"/>
	<path fill="#7CB9E4" stroke="#5361AC" stroke-miterlimit="10" d="M306.721,382.288c0.012-0.012,0.024-0.025,0.036-0.037
		c-0.014,0.003-0.029,0.007-0.043,0.01C306.717,382.268,306.719,382.279,306.721,382.288z"/>
	<path fill="#7CB9E4" stroke="#5361AC" stroke-miterlimit="10" d="M306.906,382.532c0.083,0.061,0.174,0.124,0.275,0.194
		c0.002-0.021,0.004-0.039,0.006-0.061c-0.109-0.126-0.207-0.235-0.289-0.324C306.901,382.4,306.904,382.463,306.906,382.532z"/>
</g>
</svg>
