<?xml version="1.0" encoding="utf-8"?>
<!-- Generator: Adobe Illustrator 16.0.0, SVG Export Plug-In . SVG Version: 6.00 Build 0)  -->
<!DOCTYPE svg PUBLIC "-//W3C//DTD SVG 1.1//EN" "http://www.w3.org/Graphics/SVG/1.1/DTD/svg11.dtd">
<svg version="1.1" id="Layer_1" xmlns="http://www.w3.org/2000/svg" xmlns:xlink="http://www.w3.org/1999/xlink" x="0px" y="0px"
	 width="612px" height="792px" viewBox="0 0 612 792" enable-background="new 0 0 612 792" xml:space="preserve">
<g>
	<path fill="#F280B3" stroke="#5361AC" stroke-miterlimit="10" d="M306.668,380.39c0.525-2.822,1.355-5.994,2.628-9.495
		c1.113-3.056,2.324-5.701,3.553-7.987c-1.506-10.717-5.471-15.676-5.471-15.676s-4.521,5.66-5.739,17.947
		c0.828,1.726,1.636,3.623,2.398,5.715C305.312,374.396,306.142,377.568,306.668,380.39z"/>
	<path fill="#F280B3" stroke="#5361AC" stroke-miterlimit="10" d="M306.668,410.734c-0.526,2.822-1.356,5.996-2.63,9.497
		c-0.763,2.093-1.57,3.989-2.398,5.715c1.218,12.288,5.739,17.947,5.739,17.947s3.965-4.958,5.471-15.676
		c-1.229-2.286-2.439-4.931-3.553-7.986C308.023,416.73,307.193,413.557,306.668,410.734z"/>
	<path fill="#F280B3" stroke="#5361AC" stroke-miterlimit="10" d="M295.824,372.434c2.755,3.283,4.81,6.359,6.349,9.122
		c-0.504-2.908-0.834-6.283-0.834-10.158c0-2.238,0.111-4.306,0.302-6.218c-5.351-11.149-11.545-14.926-11.545-14.926
		s-1.994,5.923,0.172,16.353C292.05,368.24,293.917,370.162,295.824,372.434z"/>
	<path fill="#F280B3" stroke="#5361AC" stroke-miterlimit="10" d="M295.92,382.417c-1.12-2.147-2.22-4.596-3.236-7.39
		c-1.115-3.063-1.888-5.874-2.417-8.421c-8.205-7.513-14.604-8.801-14.604-8.801s0.165,6.952,6.726,16.825
		c2.197,0.916,4.564,2.066,7.084,3.521C291.929,379.569,294.061,381.007,295.92,382.417z"/>
	<path fill="#F280B3" stroke="#5361AC" stroke-miterlimit="10" d="M305.917,390.438c-0.631-2.267-1.755-5.31-3.745-8.882
		c0.783,4.518,1.987,7.897,3.041,10.201c0.383,0.542,0.706,1.036,0.977,1.475C306.077,392.471,305.975,391.537,305.917,390.438z"/>
	<path fill="#F280B3" stroke="#5361AC" stroke-miterlimit="10" d="M294.095,387.747c-2.355-1.952-4.905-4.421-7.528-7.546
		c-1.623-1.936-3.003-3.799-4.179-5.569c-10.355-4.316-16.864-3.33-16.864-3.33s2.388,6.099,11.247,12.888
		c2.181,0.129,4.555,0.396,7.125,0.849C287.868,385.738,291.247,386.697,294.095,387.747z"/>
	<path fill="#F280B3" stroke="#5361AC" stroke-miterlimit="10" d="M306.304,394.723c0.034-0.068,0.07-0.14,0.111-0.217
		c-0.039-0.187-0.079-0.395-0.12-0.626c-0.32-0.563-0.689-1.267-1.082-2.123c-1.713-2.427-4.621-5.794-9.293-9.339
		c2.176,4.174,4.428,7.191,6.303,9.279c2.004,1.273,3.28,2.372,3.921,2.98C306.199,394.693,306.256,394.709,306.304,394.723z"/>
	<path fill="#F280B3" stroke="#5361AC" stroke-miterlimit="10" d="M291.325,392.466c-2.422-0.964-5.062-2.216-7.894-3.851
		c-2.55-1.471-4.752-2.965-6.66-4.426c-11.692-0.692-17.723,2.603-17.723,2.603s4.433,5.029,15.353,8.379
		c2.199-0.675,4.654-1.283,7.397-1.767C285.346,392.779,288.523,392.508,291.325,392.466z"/>
	<path fill="#F280B3" stroke="#5361AC" stroke-miterlimit="10" d="M306.267,394.796c-0.04-0.038-0.078-0.076-0.123-0.119
		c-0.335-0.096-0.807-0.246-1.4-0.469c0.106,0.093,0.208,0.182,0.307,0.265c0.501,0.185,0.88,0.347,1.146,0.467
		C306.218,394.894,306.241,394.848,306.267,394.796z"/>
	<path fill="#F280B3" stroke="#5361AC" stroke-miterlimit="10" d="M302.223,391.697c-1.972-1.252-4.65-2.668-8.128-3.95
		c4.596,3.809,8.448,5.637,10.648,6.462C304.042,393.593,303.184,392.768,302.223,391.697z"/>
	<path fill="#F280B3" stroke="#5361AC" stroke-miterlimit="10" d="M292.43,397.88c-3.062,0.02-6.608-0.233-10.632-0.943
		c-2.743-0.483-5.198-1.092-7.397-1.766c-10.92,3.351-15.353,8.38-15.353,8.38s6.164,3.363,18.106,2.576
		c1.713-1.264,3.649-2.546,5.842-3.812C286.441,400.327,289.604,398.903,292.43,397.88z"/>
	<path fill="#F280B3" stroke="#5361AC" stroke-miterlimit="10" d="M305.99,395.387c0.013-0.032,0.031-0.071,0.053-0.122
		c-0.257-0.19-0.594-0.454-0.992-0.792c-2.246-0.831-6.853-2.11-13.726-2.007c4.973,1.98,9.006,2.729,11.784,2.981
		C304.369,395.35,305.339,395.356,305.99,395.387z"/>
	<path fill="#F280B3" stroke="#5361AC" stroke-miterlimit="10" d="M306.439,395.58c-0.006-0.015-0.011-0.024-0.016-0.036
		c-0.05,0.002-0.107,0.004-0.162,0.005c-0.023,0.023-0.045,0.045-0.071,0.069c0.041,0.01,0.089,0.023,0.14,0.037
		C306.37,395.627,306.408,395.601,306.439,395.58z"/>
	<path fill="#F280B3" stroke="#5361AC" stroke-miterlimit="10" d="M295.446,402.076c-3.109,1.25-6.932,2.414-11.55,3.228
		c-2.422,0.427-4.666,0.687-6.741,0.823c-9.533,7.031-12.064,13.504-12.064,13.504s6.935,1.051,17.877-3.765
		c1.191-1.802,2.596-3.701,4.251-5.675C290.104,406.754,292.899,404.11,295.446,402.076z"/>
	<path fill="#F280B3" stroke="#5361AC" stroke-miterlimit="10" d="M305.972,395.824c-0.085,0.077-0.175,0.159-0.275,0.248
		c0.043-0.015,0.083-0.029,0.124-0.043c0.058-0.043,0.107-0.081,0.159-0.119C305.977,395.881,305.974,395.849,305.972,395.824z"/>
	<path fill="#F280B3" stroke="#5361AC" stroke-miterlimit="10" d="M306.386,395.511c0.011,0.007,0.023,0.016,0.033,0.022
		c-0.003-0.007-0.007-0.015-0.009-0.021C306.403,395.512,306.395,395.512,306.386,395.511z"/>
	<path fill="#F280B3" stroke="#5361AC" stroke-miterlimit="10" d="M306.03,395.475c-0.062,0.026-0.131,0.056-0.201,0.085
		c0.155-0.002,0.3-0.006,0.433-0.011c0.016-0.015,0.033-0.031,0.048-0.045C306.18,395.492,306.087,395.482,306.03,395.475z"/>
	<path fill="#F280B3" stroke="#5361AC" stroke-miterlimit="10" d="M303.109,395.447c-2.506,0.191-6.157,0.794-10.679,2.433
		c7.16-0.046,11.664-1.589,13.398-2.319C305.137,395.57,304.226,395.548,303.109,395.447z"/>
	<path fill="#F280B3" stroke="#5361AC" stroke-miterlimit="10" d="M296.405,407.802c-2.063,1.636-4.495,3.321-7.366,4.978
		c-2.136,1.234-4.163,2.247-6.071,3.087c-6.492,9.817-6.654,16.721-6.654,16.721s6.084-1.226,13.991-8.247
		c0.527-2.5,1.292-5.251,2.38-8.241C293.847,412.903,295.119,410.158,296.405,407.802z"/>
	<path fill="#F280B3" stroke="#5361AC" stroke-miterlimit="10" d="M305.697,396.071c-2.033,0.73-5.75,2.411-10.251,6.005
		C300.954,399.863,304.221,397.377,305.697,396.071z"/>
	<path fill="#F280B3" stroke="#5361AC" stroke-miterlimit="10" d="M302.075,410.139c-1.441,2.416-3.271,5.045-5.601,7.82
		c-2.127,2.535-4.204,4.634-6.17,6.381c-2.228,10.542-0.209,16.533-0.209,16.533s6.194-3.777,11.545-14.927
		c-0.19-1.912-0.302-3.979-0.302-6.218C301.338,416.105,301.625,412.914,302.075,410.139z"/>
	<path fill="#F280B3" stroke="#5361AC" stroke-miterlimit="10" d="M306.188,397.437c-1.223,2.198-3.09,6.369-4.113,12.702
		c1.818-3.051,3.013-5.758,3.798-7.988c0.02-1.885,0.18-3.393,0.354-4.498C306.213,397.578,306.202,397.508,306.188,397.437z"/>
	<path fill="#F280B3" stroke="#5361AC" stroke-miterlimit="10" d="M305.821,396.028c-1.652,1.268-5.601,4.782-9.416,11.773
		c5.631-4.465,8.479-8.562,9.723-10.726c-0.076-0.478-0.12-0.851-0.143-1.105C305.931,395.99,305.877,396.008,305.821,396.028z"/>
	<path fill="#F280B3" stroke="#5361AC" stroke-miterlimit="10" d="M313.031,378.465c1.24-1.907,2.715-3.926,4.48-6.031
		c1.906-2.272,3.773-4.194,5.557-5.827c2.166-10.43,0.172-16.353,0.172-16.353s-5.344,3.259-10.391,12.655
		c0.352,2.511,0.57,5.335,0.57,8.49C313.42,373.969,313.275,376.322,313.031,378.465z"/>
	<path fill="#F280B3" stroke="#5361AC" stroke-miterlimit="10" d="M306.668,394.042c0.002-0.005,0.005-0.011,0.009-0.017
		c0.089-0.737,0.288-1.96,0.741-3.587c0.131-2.518,0.023-5.898-0.75-10.048c-0.773,4.15-0.883,7.53-0.751,10.048
		c0.453,1.627,0.652,2.85,0.741,3.587C306.663,394.031,306.665,394.037,306.668,394.042z"/>
	<path fill="#F280B3" stroke="#5361AC" stroke-miterlimit="10" d="M306.663,394.053c-0.002-0.009-0.003-0.019-0.004-0.028
		c-0.135-0.239-0.29-0.504-0.469-0.793c0.035,0.232,0.07,0.448,0.105,0.647c0.083,0.146,0.161,0.281,0.237,0.407
		C306.573,394.213,306.618,394.133,306.663,394.053z"/>
	<path fill="#F280B3" stroke="#5361AC" stroke-miterlimit="10" d="M317.416,382.417c1.859-1.411,3.992-2.848,6.447-4.266
		c2.52-1.455,4.887-2.604,7.084-3.521c6.561-9.873,6.727-16.825,6.727-16.825s-6.4,1.289-14.605,8.801
		c-0.527,2.547-1.301,5.357-2.416,8.421C319.635,377.821,318.535,380.27,317.416,382.417z"/>
	<path fill="#F280B3" stroke="#5361AC" stroke-miterlimit="10" d="M310.895,388.325c0.867-2.568,1.678-5.841,2.137-9.86
		c-3.197,4.915-4.807,9.077-5.613,11.973c-0.057,1.099-0.158,2.033-0.271,2.794C307.916,391.981,309.117,390.28,310.895,388.325z"/>
	<path fill="#F280B3" stroke="#5361AC" stroke-miterlimit="10" d="M319.242,387.747c2.848-1.05,6.227-2.009,10.197-2.709
		c2.57-0.453,4.945-0.72,7.125-0.849c8.859-6.789,11.248-12.888,11.248-12.888s-6.51-0.986-16.865,3.33
		c-1.176,1.771-2.555,3.634-4.178,5.569C324.146,383.325,321.598,385.795,319.242,387.747z"/>
	<path fill="#F280B3" stroke="#5361AC" stroke-miterlimit="10" d="M306.402,395.411c0.09,0.006,0.168,0.013,0.236,0.019
		c-0.017-0.058-0.035-0.127-0.056-0.205C306.543,395.267,306.482,395.33,306.402,395.411z"/>
	<path fill="#F280B3" stroke="#5361AC" stroke-miterlimit="10" d="M306.544,395.076c-0.022-0.093-0.047-0.194-0.072-0.309
		c-0.05-0.013-0.104-0.027-0.168-0.044c-0.013,0.024-0.025,0.05-0.037,0.073C306.389,394.916,306.483,395.011,306.544,395.076z"/>
	<path fill="#F280B3" stroke="#5361AC" stroke-miterlimit="10" d="M306.202,395.397c0.009,0.001,0.019,0.001,0.025,0.001
		c-0.003-0.002-0.007-0.005-0.011-0.008C306.212,395.393,306.207,395.396,306.202,395.397z"/>
	<path fill="#F280B3" stroke="#5361AC" stroke-miterlimit="10" d="M306.581,395.217c-0.009-0.033-0.018-0.07-0.026-0.106
		c-0.073-0.037-0.194-0.096-0.358-0.17c-0.064,0.132-0.116,0.242-0.153,0.325c0.063,0.046,0.121,0.087,0.174,0.126
		C306.395,395.31,306.515,395.25,306.581,395.217z"/>
	<path fill="#F280B3" stroke="#5361AC" stroke-miterlimit="10" d="M306.309,395.504c0.025,0.002,0.048,0.004,0.077,0.007
		c-0.015-0.01-0.032-0.022-0.049-0.035C306.329,395.485,306.318,395.495,306.309,395.504z"/>
	<path fill="#F280B3" stroke="#5361AC" stroke-miterlimit="10" d="M306.337,395.476c0.024-0.024,0.043-0.043,0.064-0.065
		c-0.055-0.004-0.11-0.008-0.175-0.012C306.268,395.428,306.303,395.452,306.337,395.476z"/>
	<path fill="#F280B3" stroke="#5361AC" stroke-miterlimit="10" d="M305.99,395.387c-0.021,0.048-0.032,0.078-0.032,0.078
		s0.028,0.004,0.072,0.01c0.063-0.028,0.119-0.053,0.172-0.078C306.135,395.394,306.066,395.39,305.99,395.387z"/>
	<path fill="#F280B3" stroke="#5361AC" stroke-miterlimit="10" d="M307.193,394.677c-0.057,0.016-0.113,0.032-0.162,0.045
		c0.014,0.024,0.025,0.05,0.037,0.073C307.109,394.758,307.146,394.72,307.193,394.677z"/>
	<path fill="#F280B3" stroke="#5361AC" stroke-miterlimit="10" d="M306.698,395.43c0.067-0.006,0.146-0.013,0.235-0.019
		c-0.079-0.081-0.141-0.144-0.18-0.186C306.733,395.303,306.714,395.373,306.698,395.43z"/>
	<path fill="#F280B3" stroke="#5361AC" stroke-miterlimit="10" d="M306.933,394.93c-0.025-0.04-0.052-0.08-0.079-0.122
		c-0.021,0.098-0.043,0.187-0.063,0.268C306.828,395.037,306.876,394.987,306.933,394.93z"/>
	<path fill="#F280B3" stroke="#5361AC" stroke-miterlimit="10" d="M306.668,394.103c0.001-0.016,0.004-0.034,0.005-0.049
		c-0.001-0.004-0.004-0.007-0.005-0.011c-0.002,0.004-0.004,0.007-0.006,0.011C306.664,394.069,306.667,394.087,306.668,394.103z"/>
	<path fill="#F280B3" stroke="#5361AC" stroke-miterlimit="10" d="M306.864,394.767c-0.011,0.003-0.021,0.005-0.03,0.008
		c0.007,0.012,0.014,0.021,0.021,0.033C306.858,394.793,306.861,394.781,306.864,394.767z"/>
	<path fill="#F280B3" stroke="#5361AC" stroke-miterlimit="10" d="M306.729,394.828c0,0,0-0.009-0.001-0.027
		c-0.025,0.006-0.043,0.01-0.06,0.014C306.704,394.823,306.729,394.828,306.729,394.828z"/>
	<path fill="#F280B3" stroke="#5361AC" stroke-miterlimit="10" d="M306.608,394.801c0.003-0.048,0.009-0.169,0.024-0.347
		c-0.032-0.052-0.066-0.111-0.1-0.167c-0.043,0.077-0.08,0.148-0.117,0.219c0.02,0.092,0.038,0.181,0.057,0.262
		C306.526,394.781,306.571,394.792,306.608,394.801z"/>
	<path fill="#F280B3" stroke="#5361AC" stroke-miterlimit="10" d="M306.544,395.076c0.004,0.012,0.007,0.023,0.01,0.035
		c0.02,0.01,0.033,0.017,0.046,0.024C306.585,395.118,306.568,395.1,306.544,395.076z"/>
	<path fill="#F280B3" stroke="#5361AC" stroke-miterlimit="10" d="M306.645,395.183c0,0-0.007-0.007-0.012-0.013
		c-0.007,0.007-0.019,0.02-0.033,0.037C306.626,395.193,306.645,395.183,306.645,395.183z"/>
	<path fill="#F280B3" stroke="#5361AC" stroke-miterlimit="10" d="M306.645,395.158c0,0-0.019-0.01-0.045-0.023
		c0.016,0.017,0.026,0.029,0.033,0.036C306.638,395.165,306.645,395.158,306.645,395.158z"/>
	<path fill="#F280B3" stroke="#5361AC" stroke-miterlimit="10" d="M306.6,395.207c-0.006,0.003-0.014,0.006-0.02,0.01
		c0.001,0.002,0.002,0.006,0.002,0.008C306.588,395.218,306.594,395.213,306.6,395.207z"/>
	<path fill="#F280B3" stroke="#5361AC" stroke-miterlimit="10" d="M306.638,395.43c0,0.002,0,0.003,0.001,0.005
		c0.009,0,0.02-0.002,0.029-0.002C306.659,395.432,306.648,395.431,306.638,395.43z"/>
	<path fill="#F280B3" stroke="#5361AC" stroke-miterlimit="10" d="M311.113,391.697c1.875-2.088,4.127-5.105,6.303-9.279
		c-2.744,2.083-4.879,4.103-6.521,5.908c-0.732,2.169-1.502,3.837-2.137,5.02C309.389,392.855,310.17,392.295,311.113,391.697z"/>
	<path fill="#F280B3" stroke="#5361AC" stroke-miterlimit="10" d="M306.92,394.505c0.073-0.349,0.152-0.773,0.226-1.273
		c-0.179,0.29-0.334,0.555-0.469,0.793c-0.001,0.009-0.002,0.019-0.004,0.028C306.766,394.217,306.848,394.369,306.92,394.505z"/>
	<path fill="#F280B3" stroke="#5361AC" stroke-miterlimit="10" d="M307.031,394.723c-0.034-0.068-0.071-0.14-0.111-0.217
		c-0.02,0.092-0.039,0.181-0.057,0.262C306.914,394.754,306.968,394.74,307.031,394.723z"/>
	<path fill="#F280B3" stroke="#5361AC" stroke-miterlimit="10" d="M306.833,394.775c-0.038-0.059-0.078-0.124-0.119-0.188
		c0.009,0.106,0.012,0.179,0.014,0.214C306.757,394.794,306.792,394.786,306.833,394.775z"/>
	<path fill="#F280B3" stroke="#5361AC" stroke-miterlimit="10" d="M306.668,394.815c-0.018-0.004-0.035-0.008-0.061-0.014
		c-0.001,0.018-0.001,0.027-0.001,0.027S306.632,394.823,306.668,394.815z"/>
	<path fill="#F280B3" stroke="#5361AC" stroke-miterlimit="10" d="M306.668,394.103c-0.017,0.137-0.028,0.252-0.036,0.351
		c0.029,0.047,0.055,0.088,0.082,0.133C306.707,394.468,306.691,394.304,306.668,394.103z"/>
	<path fill="#F280B3" stroke="#5361AC" stroke-miterlimit="10" d="M322.012,392.466c2.801,0.042,5.979,0.313,9.525,0.938
		c2.744,0.483,5.199,1.092,7.398,1.767c10.92-3.35,15.352-8.379,15.352-8.379s-6.029-3.295-17.723-2.603
		c-1.908,1.461-4.109,2.955-6.66,4.426C327.074,390.25,324.434,391.501,322.012,392.466z"/>
	<path fill="#F280B3" stroke="#5361AC" stroke-miterlimit="10" d="M308.061,394.559c0.074-0.028,0.145-0.056,0.225-0.086
		c0.098-0.083,0.201-0.171,0.307-0.265c-0.143,0.054-0.279,0.103-0.408,0.149C308.141,394.428,308.1,394.495,308.061,394.559z"/>
	<path fill="#F280B3" stroke="#5361AC" stroke-miterlimit="10" d="M307.141,394.94c-0.023-0.046-0.045-0.092-0.072-0.144
		c-0.049,0.049-0.095,0.093-0.135,0.134c0.018,0.026,0.037,0.056,0.054,0.082C307.033,394.989,307.084,394.966,307.141,394.94z"/>
	<path fill="#F280B3" stroke="#5361AC" stroke-miterlimit="10" d="M306.691,395.183c0,0,0.019,0.01,0.045,0.024
		c-0.015-0.018-0.026-0.03-0.033-0.037C306.698,395.176,306.691,395.183,306.691,395.183z"/>
	<path fill="#F280B3" stroke="#5361AC" stroke-miterlimit="10" d="M306.791,395.076c-0.022,0.024-0.04,0.042-0.055,0.059
		c0.013-0.007,0.026-0.014,0.046-0.024C306.785,395.099,306.788,395.088,306.791,395.076z"/>
	<path fill="#F280B3" stroke="#5361AC" stroke-miterlimit="10" d="M308.592,394.208c2.201-0.825,6.053-2.653,10.65-6.462
		c-3.48,1.282-6.158,2.698-8.129,3.95C310.152,392.768,309.293,393.593,308.592,394.208z"/>
	<path fill="#F280B3" stroke="#5361AC" stroke-miterlimit="10" d="M308.758,393.345c-0.707,0.55-1.227,1.011-1.564,1.333
		c0.252-0.073,0.584-0.177,0.99-0.32C308.355,394.071,308.549,393.736,308.758,393.345z"/>
	<path fill="#F280B3" stroke="#5361AC" stroke-miterlimit="10" d="M354.287,403.551c0,0-4.432-5.029-15.352-8.38
		c-2.199,0.674-4.654,1.283-7.398,1.766c-4.023,0.709-7.568,0.962-10.631,0.943c2.826,1.023,5.99,2.447,9.434,4.436
		c2.191,1.266,4.129,2.548,5.842,3.812C348.123,406.914,354.287,403.551,354.287,403.551z"/>
	<path fill="#F280B3" stroke="#5361AC" stroke-miterlimit="10" d="M307.109,395.399c0.008,0,0.016,0,0.025-0.001
		c-0.006-0.002-0.012-0.004-0.016-0.006C307.115,395.394,307.111,395.396,307.109,395.399z"/>
	<path fill="#F280B3" stroke="#5361AC" stroke-miterlimit="10" d="M306.691,395.158c0,0,0.007,0.007,0.012,0.012
		c0.007-0.007,0.018-0.019,0.033-0.036C306.709,395.148,306.691,395.158,306.691,395.158z"/>
	<path fill="#F280B3" stroke="#5361AC" stroke-miterlimit="10" d="M306.736,395.207c0.007,0.006,0.012,0.011,0.018,0.018
		c0.001-0.002,0.001-0.006,0.002-0.008C306.749,395.213,306.743,395.21,306.736,395.207z"/>
	<path fill="#F280B3" stroke="#5361AC" stroke-miterlimit="10" d="M307.516,395.38c0.645-0.023,1.555-0.021,2.711,0.067
		c2.779-0.252,6.812-1.001,11.785-2.981c-6.873-0.103-11.48,1.176-13.727,2.007c-0.125,0.107-0.244,0.206-0.357,0.297
		C307.752,395.047,307.611,395.249,307.516,395.38z"/>
	<path fill="#F280B3" stroke="#5361AC" stroke-miterlimit="10" d="M307.25,395.392c0.033-0.002,0.062-0.004,0.096-0.005
		c-0.012-0.032-0.029-0.071-0.053-0.122c-0.031,0.023-0.059,0.042-0.088,0.063C307.223,395.352,307.236,395.372,307.25,395.392z"/>
	<path fill="#F280B3" stroke="#5361AC" stroke-miterlimit="10" d="M307.293,395.265c0.176-0.13,0.391-0.296,0.635-0.495
		c0.041-0.065,0.086-0.138,0.133-0.211c-0.389,0.149-0.697,0.28-0.92,0.381C307.205,395.072,307.256,395.182,307.293,395.265z"/>
	<path fill="#F280B3" stroke="#5361AC" stroke-miterlimit="10" d="M306.755,395.217c0.065,0.034,0.186,0.093,0.364,0.174
		c0.027-0.02,0.057-0.041,0.086-0.062c-0.059-0.083-0.131-0.187-0.218-0.317c-0.086,0.041-0.157,0.075-0.205,0.099
		C306.773,395.146,306.764,395.184,306.755,395.217z"/>
	<path fill="#F280B3" stroke="#5361AC" stroke-miterlimit="10" d="M306.897,395.58c0.032,0.021,0.069,0.048,0.109,0.076
		c0.051-0.014,0.1-0.026,0.141-0.037c-0.027-0.024-0.049-0.046-0.072-0.069c-0.055-0.001-0.111-0.003-0.162-0.005
		C306.908,395.556,306.903,395.565,306.897,395.58z"/>
	<path fill="#F280B3" stroke="#5361AC" stroke-miterlimit="10" d="M317.889,402.076c2.549,2.034,5.344,4.678,8.229,8.115
		c1.656,1.974,3.061,3.873,4.252,5.675c10.941,4.815,17.877,3.765,17.877,3.765s-2.531-6.473-12.064-13.504
		c-2.076-0.137-4.32-0.396-6.742-0.823C324.822,404.49,321,403.326,317.889,402.076z"/>
	<path fill="#F280B3" stroke="#5361AC" stroke-miterlimit="10" d="M306.434,395.543c0.011,0.008,0.02,0.013,0.029,0.02
		c0.013-0.008,0.024-0.016,0.035-0.023C306.476,395.541,306.457,395.542,306.434,395.543z"/>
	<path fill="#F280B3" stroke="#5361AC" stroke-miterlimit="10" d="M306.667,395.531c-0.005,0-0.012,0-0.018,0.001
		c0.004,0.011,0.006,0.018,0.01,0.033c0.003-0.008,0.007-0.021,0.01-0.03C306.667,395.533,306.667,395.532,306.667,395.531z"/>
	<path fill="#F280B3" stroke="#5361AC" stroke-miterlimit="10" d="M306.419,395.533c0.002,0.003,0.003,0.007,0.004,0.011
		c0.004,0,0.007-0.001,0.011-0.001C306.428,395.539,306.425,395.537,306.419,395.533z"/>
	<path fill="#F280B3" stroke="#5361AC" stroke-miterlimit="10" d="M307.355,395.909c0.004-0.028,0.006-0.061,0.008-0.085
		c-0.037-0.035-0.07-0.066-0.105-0.099c-0.016,0.022-0.033,0.046-0.053,0.073C307.254,395.832,307.303,395.869,307.355,395.909z"/>
	<path fill="#F280B3" stroke="#5361AC" stroke-miterlimit="10" d="M306.626,395.739c0.017-0.057,0.029-0.105,0.042-0.144
		c-0.003-0.009-0.007-0.022-0.01-0.031c-0.021,0.069-0.033,0.105-0.033,0.105s-0.059-0.037-0.162-0.106
		c-0.008,0.006-0.015,0.01-0.024,0.017c0.015,0.034,0.031,0.073,0.054,0.121C306.537,395.713,306.578,395.725,306.626,395.739z"/>
	<path fill="#F280B3" stroke="#5361AC" stroke-miterlimit="10" d="M306.648,395.53c-0.044-0.003-0.081-0.006-0.122-0.009
		c-0.007,0.005-0.019,0.013-0.027,0.019c0.052-0.003,0.104-0.005,0.15-0.008C306.649,395.531,306.648,395.53,306.648,395.53z"/>
	<path fill="#F280B3" stroke="#5361AC" stroke-miterlimit="10" d="M306.902,395.543c-0.022-0.001-0.042-0.002-0.064-0.003
		c0.011,0.007,0.022,0.015,0.035,0.023C306.882,395.556,306.891,395.551,306.902,395.543z"/>
	<path fill="#F280B3" stroke="#5361AC" stroke-miterlimit="10" d="M306.669,395.531c0,0.001-0.001,0.002-0.001,0.003
		c0.002,0.009,0.005,0.022,0.009,0.03c0.004-0.015,0.006-0.021,0.01-0.033C306.681,395.531,306.674,395.531,306.669,395.531z"/>
	<path fill="#F280B3" stroke="#5361AC" stroke-miterlimit="10" d="M306.949,395.511c0.029-0.002,0.053-0.005,0.079-0.007
		c-0.01-0.009-0.02-0.019-0.029-0.028C306.982,395.488,306.964,395.5,306.949,395.511z"/>
	<path fill="#F280B3" stroke="#5361AC" stroke-miterlimit="10" d="M306.913,395.544c0.001-0.004,0.003-0.007,0.004-0.011
		c-0.006,0.004-0.009,0.006-0.015,0.01C306.906,395.543,306.909,395.544,306.913,395.544z"/>
	<path fill="#F280B3" stroke="#5361AC" stroke-miterlimit="10" d="M306.648,395.53c0.006,0,0.014,0,0.019,0.001
		c-0.008-0.029-0.017-0.058-0.027-0.095c-0.164,0.016-0.248,0.029-0.248,0.029s0.008,0.02,0.02,0.048
		c0.034,0.003,0.076,0.005,0.115,0.008c0.065-0.042,0.1-0.064,0.1-0.064S306.635,395.486,306.648,395.53z"/>
	<path fill="#F280B3" stroke="#5361AC" stroke-miterlimit="10" d="M306.917,395.533c0.01-0.006,0.022-0.015,0.032-0.022
		c-0.007,0.001-0.016,0.001-0.023,0.002C306.923,395.519,306.92,395.526,306.917,395.533z"/>
	<path fill="#F280B3" stroke="#5361AC" stroke-miterlimit="10" d="M306.696,395.436c0.001-0.002,0.002-0.003,0.002-0.005
		c-0.01,0.001-0.021,0.002-0.029,0.003C306.677,395.434,306.688,395.435,306.696,395.436z"/>
	<path fill="#F280B3" stroke="#5361AC" stroke-miterlimit="10" d="M306.688,395.53c0.013-0.044,0.022-0.073,0.022-0.073
		s0.034,0.021,0.1,0.064c0.038-0.003,0.08-0.005,0.115-0.008c0.012-0.028,0.02-0.048,0.02-0.048s-0.084-0.013-0.249-0.029
		c-0.01,0.038-0.019,0.066-0.026,0.095C306.674,395.53,306.681,395.53,306.688,395.53z"/>
	<polygon fill="#F280B3" stroke="#5361AC" stroke-miterlimit="10" points="307.379,395.563 307.383,395.559 307.375,395.558 	"/>
	<path fill="#F280B3" stroke="#5361AC" stroke-miterlimit="10" d="M307.639,396.071c0.043,0.016,0.092,0.034,0.137,0.051
		c-0.25-0.375-0.396-0.559-0.396-0.559s-0.002,0.089-0.016,0.26C307.447,395.901,307.537,395.983,307.639,396.071z"/>
	<path fill="#F280B3" stroke="#5361AC" stroke-miterlimit="10" d="M307.258,395.725c0.076-0.104,0.121-0.161,0.121-0.161
		s-0.082,0.016-0.232,0.055C307.18,395.652,307.221,395.688,307.258,395.725z"/>
	<path fill="#F280B3" stroke="#5361AC" stroke-miterlimit="10" d="M307.383,395.559c0.039,0.001,0.082,0.001,0.125,0.002
		c-0.033-0.014-0.064-0.027-0.096-0.041C307.396,395.542,307.387,395.555,307.383,395.559z"/>
	<path fill="#F280B3" stroke="#5361AC" stroke-miterlimit="10" d="M307.027,395.504c0.016,0.014,0.031,0.031,0.047,0.045
		c0.096,0.004,0.193,0.007,0.301,0.009c-0.004-0.005-0.023-0.03-0.061-0.08c-0.004-0.001-0.006-0.002-0.008-0.003
		C307.25,395.482,307.156,395.492,307.027,395.504z"/>
	<path fill="#F280B3" stroke="#5361AC" stroke-miterlimit="10" d="M306.999,395.476c0.035-0.024,0.07-0.048,0.111-0.077
		c-0.064,0.004-0.121,0.008-0.176,0.012C306.955,395.433,306.974,395.452,306.999,395.476z"/>
	<path fill="#F280B3" stroke="#5361AC" stroke-miterlimit="10" d="M307.508,395.561c1.734,0.73,6.238,2.273,13.398,2.319
		c-4.523-1.639-8.172-2.242-10.68-2.433C309.109,395.548,308.197,395.57,307.508,395.561z"/>
	<path fill="#F280B3" stroke="#5361AC" stroke-miterlimit="10" d="M307.379,395.465c0,0-0.027,0.004-0.068,0.009
		c0.002,0.001,0.002,0.002,0.004,0.004c0.029,0.013,0.066,0.028,0.098,0.042c0.023-0.03,0.057-0.075,0.104-0.14
		c-0.057,0.002-0.117,0.004-0.17,0.007C307.367,395.435,307.379,395.465,307.379,395.465z"/>
	<path fill="#F280B3" stroke="#5361AC" stroke-miterlimit="10" d="M307.135,395.397c0.053,0.024,0.107,0.05,0.172,0.078
		c0.002,0,0.002-0.001,0.004-0.001c-0.016-0.022-0.039-0.052-0.061-0.083C307.211,395.394,307.172,395.396,307.135,395.397z"/>
	<path fill="#F280B3" stroke="#5361AC" stroke-miterlimit="10" d="M316.932,407.802c1.285,2.356,2.557,5.102,3.721,8.297
		c1.088,2.99,1.852,5.741,2.381,8.241c7.906,7.021,13.99,8.247,13.99,8.247s-0.162-6.903-6.654-16.721
		c-1.908-0.84-3.936-1.853-6.072-3.087C321.426,411.123,318.994,409.438,316.932,407.802z"/>
	<path fill="#F280B3" stroke="#5361AC" stroke-miterlimit="10" d="M305.958,395.563c0,0,0.002,0.089,0.015,0.26
		c0.081-0.074,0.152-0.142,0.218-0.205C306.039,395.58,305.958,395.563,305.958,395.563z"/>
	<path fill="#F280B3" stroke="#5361AC" stroke-miterlimit="10" d="M306.33,395.655c-0.095,0.066-0.212,0.15-0.35,0.254
		c0.001,0.021,0.003,0.04,0.005,0.062c0.205-0.07,0.389-0.129,0.55-0.179c-0.014-0.031-0.03-0.065-0.042-0.092
		C306.434,395.684,306.378,395.668,306.33,395.655z"/>
	<path fill="#F280B3" stroke="#5361AC" stroke-miterlimit="10" d="M306.439,396.513c-0.09,0.169-0.193,0.356-0.312,0.563
		c0.019,0.113,0.038,0.233,0.061,0.36c0.037-0.066,0.072-0.128,0.108-0.19C306.345,396.97,306.393,396.726,306.439,396.513z"/>
	<path fill="#F280B3" stroke="#5361AC" stroke-miterlimit="10" d="M307.516,396.028c0.123,0.094,0.264,0.206,0.412,0.326
		c-0.018-0.027-0.033-0.05-0.051-0.076c-0.082-0.071-0.164-0.141-0.238-0.207C307.596,396.057,307.557,396.042,307.516,396.028z"/>
	<path fill="#F280B3" stroke="#5361AC" stroke-miterlimit="10" d="M306.535,395.792c0.016,0.033,0.031,0.066,0.05,0.105
		c0.013-0.049,0.023-0.09,0.035-0.131C306.592,395.774,306.564,395.783,306.535,395.792z"/>
	<path fill="#F280B3" stroke="#5361AC" stroke-miterlimit="10" d="M317.889,402.076c-4.402-3.516-8.053-5.2-10.113-5.954
		c0.031,0.047,0.068,0.103,0.102,0.156C309.451,397.627,312.658,399.974,317.889,402.076z"/>
	<path fill="#F280B3" stroke="#5361AC" stroke-miterlimit="10" d="M316.861,417.959c-1.453-1.734-2.709-3.408-3.801-5.012
		c0.225,2.066,0.359,4.322,0.359,6.781c0,3.154-0.219,5.979-0.57,8.489c5.047,9.396,10.391,12.655,10.391,12.655
		s2.02-5.991-0.207-16.533C321.066,422.593,318.988,420.494,316.861,417.959z"/>
	<path fill="#F280B3" stroke="#5361AC" stroke-miterlimit="10" d="M305.873,402.15c-0.024,2.313,0.164,5.191,0.796,8.584
		c0.63-3.393,0.82-6.271,0.794-8.584c-0.334-0.947-0.593-1.805-0.794-2.568C306.465,400.346,306.207,401.203,305.873,402.15z"/>
	<path fill="#F280B3" stroke="#5361AC" stroke-miterlimit="10" d="M307.352,395.972c0.053,0.018,0.107,0.037,0.164,0.057
		c-0.057-0.043-0.107-0.081-0.16-0.119C307.355,395.93,307.354,395.949,307.352,395.972z"/>
	<path fill="#F280B3" stroke="#5361AC" stroke-miterlimit="10" d="M306.709,395.669c0,0-0.012-0.036-0.032-0.105
		c-0.003,0.008-0.007,0.021-0.009,0.031c0.012,0.039,0.024,0.087,0.04,0.144c0.05-0.015,0.091-0.026,0.135-0.039
		c0.021-0.048,0.039-0.087,0.054-0.121c-0.01-0.006-0.017-0.011-0.024-0.017C306.769,395.632,306.709,395.669,306.709,395.669z"/>
	<path fill="#F280B3" stroke="#5361AC" stroke-miterlimit="10" d="M306.801,395.792c0.103,0.031,0.212,0.067,0.333,0.106
		c0.025-0.037,0.049-0.07,0.07-0.101c-0.074-0.054-0.141-0.102-0.199-0.142c-0.048,0.013-0.104,0.029-0.163,0.045
		C306.832,395.727,306.816,395.761,306.801,395.792z"/>
	<path fill="#F280B3" stroke="#5361AC" stroke-miterlimit="10" d="M306.668,395.751c0.015,0.004,0.032,0.01,0.048,0.015
		c-0.002-0.008-0.005-0.019-0.008-0.027C306.696,395.743,306.681,395.748,306.668,395.751z"/>
	<path fill="#F280B3" stroke="#5361AC" stroke-miterlimit="10" d="M306.687,395.532c0.047,0.003,0.099,0.005,0.15,0.008
		c-0.009-0.006-0.02-0.014-0.027-0.019c-0.041,0.003-0.077,0.006-0.122,0.009C306.687,395.53,306.687,395.531,306.687,395.532z"/>
	<path fill="#F280B3" stroke="#5361AC" stroke-miterlimit="10" d="M307.109,397.652c0.174,1.105,0.334,2.613,0.354,4.498
		c1.02,2.894,2.732,6.593,5.598,10.797c-0.521-4.78-1.539-8.525-2.574-11.295c-1.607-1.887-2.646-3.479-3.277-4.576
		C307.18,397.254,307.146,397.445,307.109,397.652z"/>
	<path fill="#F280B3" stroke="#5361AC" stroke-miterlimit="10" d="M306.821,396.371c-0.151,0.237-0.329,0.532-0.524,0.875
		c-0.023,0.129-0.046,0.264-0.069,0.406c0.104,0.547,0.247,1.193,0.441,1.93c0.193-0.736,0.337-1.383,0.441-1.93
		c-0.072-0.447-0.145-0.827-0.213-1.14C306.872,396.464,306.844,396.415,306.821,396.371z"/>
	<path fill="#F280B3" stroke="#5361AC" stroke-miterlimit="10" d="M306.584,395.897c-0.042,0.16-0.092,0.368-0.146,0.615
		c0.088-0.165,0.166-0.315,0.229-0.443C306.637,396.007,306.61,395.951,306.584,395.897z"/>
	<path fill="#F280B3" stroke="#5361AC" stroke-miterlimit="10" d="M316.932,407.802c-3.531-6.469-7.17-9.958-9.004-11.447
		c0.592,0.926,1.58,2.677,2.559,5.298C312.051,403.488,314.154,405.6,316.932,407.802z"/>
	<path fill="#F280B3" stroke="#5361AC" stroke-miterlimit="10" d="M306.854,396.32c0.014,0.061,0.027,0.125,0.042,0.193
		c0.091,0.169,0.194,0.356,0.313,0.563c0.076-0.478,0.119-0.851,0.143-1.104c-0.076-0.026-0.146-0.05-0.217-0.073
		C307.057,396.01,306.962,396.151,306.854,396.32z"/>
	<path fill="#F280B3" stroke="#5361AC" stroke-miterlimit="10" d="M306.716,395.766c0.012,0.042,0.022,0.082,0.035,0.131
		c0.019-0.039,0.034-0.072,0.05-0.105C306.772,395.783,306.744,395.774,306.716,395.766z"/>
	<path fill="#F280B3" stroke="#5361AC" stroke-miterlimit="10" d="M306.62,395.766c0.016-0.004,0.033-0.01,0.049-0.015
		c-0.014-0.004-0.028-0.009-0.042-0.012C306.625,395.747,306.622,395.758,306.62,395.766z"/>
	<path fill="#F280B3" stroke="#5361AC" stroke-miterlimit="10" d="M306.668,396.069c0.045,0.091,0.096,0.191,0.152,0.301
		c0.012-0.019,0.021-0.033,0.033-0.051c-0.037-0.162-0.072-0.306-0.103-0.422C306.726,395.951,306.7,396.007,306.668,396.069z"/>
</g>
</svg>
