<?xml version="1.0" encoding="utf-8"?>
<!-- Generator: Adobe Illustrator 16.0.0, SVG Export Plug-In . SVG Version: 6.00 Build 0)  -->
<!DOCTYPE svg PUBLIC "-//W3C//DTD SVG 1.1//EN" "http://www.w3.org/Graphics/SVG/1.1/DTD/svg11.dtd">
<svg version="1.1" id="Layer_1" xmlns="http://www.w3.org/2000/svg" xmlns:xlink="http://www.w3.org/1999/xlink" x="0px" y="0px"
	 width="612px" height="792px" viewBox="0 0 612 792" enable-background="new 0 0 612 792" xml:space="preserve">
<path fill="#eae244" stoke="#5361AC" d="M346.603,369.617l5.978,20.296l-16.41,26.935l-24.659,4.07l-33.763-30.437l-4.834-14.605l10.335-25.607
	l25.228-8.156L346.603,369.617z"/>
<path fill="#eae244" stroke="#5361AC" stroke-linecap="round" stroke-linejoin="round" stroke-miterlimit="10" d="M346.603,369.617
	l5.978,20.296l-16.41,26.935l-24.659,4.07l-33.763-30.437l-4.834-14.605l10.335-25.607l25.228-8.156L346.603,369.617z
	 M289.471,365.634l25.645,20.485l0.948,7.019l-5.69,12.139l-5.69,1.328l-23.899-20.399l-1.707-8.053l6.069-12.519H289.471z
	 M285.146,365.634l-1.896-15.364 M346.603,369.617l-13.468,5.501l-18.02,11.001 M316.063,393.138l22.572,1.327l13.944-4.552
	 M310.373,405.276l15.521,13.268l12.742-24.079l-5.501-19.347l-37.832-28.746l-5.832,19.262 M304.683,406.604l6.828,14.313
	 M279.214,377.868l-6.3-1.992 M277.748,390.481l3.035-4.276"/>
</svg>
