<?xml version="1.0" encoding="utf-8"?>
<!-- Generator: Adobe Illustrator 16.0.0, SVG Export Plug-In . SVG Version: 6.00 Build 0)  -->
<!DOCTYPE svg PUBLIC "-//W3C//DTD SVG 1.1//EN" "http://www.w3.org/Graphics/SVG/1.1/DTD/svg11.dtd">
<svg version="1.1" id="Layer_1" xmlns="http://www.w3.org/2000/svg" xmlns:xlink="http://www.w3.org/1999/xlink" x="0px" y="0px"
	 width="612px" height="792px" viewBox="0 0 612 792" enable-background="new 0 0 612 792" xml:space="preserve">
<polygon fill="#F68A5C" points="306.702,423.243 279.239,378.352 284.946,371.5 292.366,367.75 319.36,367.75 327.614,371.5 
	334.165,378.748 "/>
<path fill="#F68A5C" stroke="#5361AC" stroke-miterlimit="10" d="M306.702,423.243l-27.463-44.892l5.707-6.851h42.668l6.551,7.247
	L306.702,423.243z M279.239,378.352l8.979,1.98h37.762l7.871-1.98 M284.946,371.5l3.271,8.832l6.469-8.832l3.939,8.832l5.15-8.832
	l4.621,8.832l4.225-8.832l5.699,8.832l2.619-8.832l5.039,8.832l1.635-8.832l-8.254-3.751h-26.994L284.946,371.5 M288.218,380.332
	l18.484,42.911l-8.076-42.911 M308.397,380.332l-1.854,42.545l11.402-42.545 M325.979,380.332l-19.436,42.545"/>
</svg>
